<svg xmlns="http://www.w3.org/2000/svg" viewBox="0 0 234.05 153"><defs><style>.cls-1{fill:#4d4d4d;}.cls-2{fill:#666;}</style></defs><g id="Layer_2" data-name="Layer 2"><g id="page_2"><rect class="cls-1" width="234.05" height="153"/><path class="cls-2" d="M116.84,54.11a13.71,13.71,0,0,1,10,4,14,14,0,0,1,0,19.68,13.39,13.39,0,0,1-9.83,4,13.53,13.53,0,0,1-9.92-4,13.23,13.23,0,0,1-4-9.73A14.13,14.13,0,0,1,104.94,61,13.41,13.41,0,0,1,110,56,13.56,13.56,0,0,1,116.84,54.11Zm.12,2.57a11.29,11.29,0,0,0-9.66,5.64,11.43,11.43,0,0,0-1.47,5.76A11.1,11.1,0,0,0,117,79.27a11.31,11.31,0,0,0,5.68-1.49,10.53,10.53,0,0,0,4.08-4.08A11.41,11.41,0,0,0,128.19,68a11.17,11.17,0,0,0-1.47-5.69,10.86,10.86,0,0,0-4.12-4.06A11.15,11.15,0,0,0,117,56.68Z"/><path class="cls-2" d="M117.05,82.66a14.36,14.36,0,0,1-10.49-4.26,14.08,14.08,0,0,1-4.28-10.31,14.93,14.93,0,0,1,2-7.45,14.22,14.22,0,0,1,5.32-5.4,15.08,15.08,0,0,1,17.9,2.29,14.84,14.84,0,0,1,0,20.85A14.23,14.23,0,0,1,117.05,82.66Zm-.21-27.73a12.85,12.85,0,0,0-6.47,1.73,12.72,12.72,0,0,0-4.71,4.78,13.36,13.36,0,0,0-1.74,6.65,12.37,12.37,0,0,0,3.8,9.15A12.63,12.63,0,0,0,117.05,81a13,13,0,0,0,13-13,12.44,12.44,0,0,0-3.8-9.27A13,13,0,0,0,116.84,54.93ZM117,80.09a11.92,11.92,0,0,1-11.95-12,12.29,12.29,0,0,1,1.58-6.17A11.79,11.79,0,0,1,111,57.5a12.11,12.11,0,0,1,16.45,4.36A12.13,12.13,0,0,1,129,68a12.34,12.34,0,0,1-1.57,6.15,11.54,11.54,0,0,1-4.39,4.38A12.15,12.15,0,0,1,117,80.09Zm0-22.59A10.42,10.42,0,0,0,108,62.73a10.6,10.6,0,0,0-1.37,5.35A10.28,10.28,0,0,0,117,78.45a10.61,10.61,0,0,0,5.28-1.38A10,10,0,0,0,126,73.3,10.71,10.71,0,0,0,127.37,68,10.43,10.43,0,0,0,126,62.68a10.14,10.14,0,0,0-3.82-3.76A10.41,10.41,0,0,0,117,57.5Z"/><path class="cls-2" d="M97.64,96.58a21.92,21.92,0,0,1,8.18-8.21,21.68,21.68,0,0,1,11.08-3,22.31,22.31,0,0,1,11.27,3,21.9,21.9,0,0,1,8.23,8.12,22.32,22.32,0,0,1,1.48,3.22h5.64a26.35,26.35,0,0,0-6.82-11.52,27.33,27.33,0,0,0-20-8A27.12,27.12,0,0,0,92.93,94a28.21,28.21,0,0,0-2.4,5.68H96.2A21.57,21.57,0,0,1,97.64,96.58Z"/></g></g></svg>