<svg xmlns="http://www.w3.org/2000/svg" viewBox="0 0 347 67"><defs><style>.cls-1{fill:#fff;}</style></defs><g id="Layer_2" data-name="Layer 2"><g id="LOGIN"><path class="cls-1" d="M108.41,22.85h2.44V39.67h8.06v2h-10.5Z"/><path class="cls-1" d="M119.41,42.22h-11.5V22.35h3.44V39.17h8.06Zm-10.5-1h9.5v-1h-8.06V23.35h-1.44Z"/><path class="cls-1" d="M142.27,32.09c0,6.49-4,9.94-8.77,9.94-5,0-8.48-3.87-8.48-9.58,0-6,3.72-9.91,8.76-9.91S142.27,26.49,142.27,32.09Zm-14.65.3c0,4,2.19,7.65,6,7.65s6.05-3.56,6.05-7.84c0-3.75-2-7.67-6-7.67S127.62,28.25,127.62,32.39Z"/><path class="cls-1" d="M133.5,42.53c-5.29,0-9-4.15-9-10.08,0-6.13,3.81-10.41,9.26-10.41s9,4,9,10.05C142.77,39.3,138.11,42.53,133.5,42.53ZM133.78,23c-4.86,0-8.26,3.87-8.26,9.41s3.21,9.08,8,9.08c5,0,8.27-3.71,8.27-9.44C141.77,26.67,138.56,23,133.78,23Zm-.14,17.5c-4.28,0-6.52-4.1-6.52-8.15s2-8.36,6.55-8.36c4.28,0,6.52,4.11,6.52,8.17C140.19,37.11,137.5,40.54,133.64,40.54Zm0-15.51c-3.83,0-5.55,3.7-5.55,7.36,0,3.44,1.73,7.15,5.52,7.15s5.55-3.69,5.55-7.34C139.19,28.74,137.46,25,133.67,25Z"/><path class="cls-1" d="M165.4,40.88a17.73,17.73,0,0,1-5.8,1,9.68,9.68,0,0,1-7.06-2.49,9.73,9.73,0,0,1-2.63-7c0-5.62,3.89-9.74,10.22-9.74a11.68,11.68,0,0,1,4.7.87l-.58,2a9.76,9.76,0,0,0-4.18-.82c-4.59,0-7.58,2.86-7.58,7.59s2.88,7.62,7.28,7.62a8,8,0,0,0,3.25-.51V33.77h-3.84v-2h6.22Z"/><path class="cls-1" d="M159.6,42.41a10.17,10.17,0,0,1-7.4-2.63,10.23,10.23,0,0,1-2.79-7.39c0-6.12,4.34-10.24,10.72-10.24a12,12,0,0,1,4.92.92l.38.18-.87,2.94L164,26a9.13,9.13,0,0,0-4-.77c-4.37,0-7.08,2.72-7.08,7.09s2.59,7.12,6.78,7.12a8.83,8.83,0,0,0,2.75-.34V34.27h-3.84v-3h7.22v9.92l-.34.12A18.11,18.11,0,0,1,159.6,42.41Zm.53-19.26c-5.79,0-9.69,3.72-9.72,9.25a9.21,9.21,0,0,0,2.48,6.66,9.24,9.24,0,0,0,6.71,2.35,17,17,0,0,0,5.3-.89V32.31h-5.22v1h3.84V39.7l-.28.14a8.42,8.42,0,0,1-3.47.56c-4.8,0-7.78-3.11-7.78-8.12s3.17-8.09,8.08-8.09a10.77,10.77,0,0,1,3.85.64l.31-1A12.11,12.11,0,0,0,160.13,23.15Z"/><path class="cls-1" d="M190.85,32.09c0,6.49-3.95,9.94-8.77,9.94-5,0-8.48-3.87-8.48-9.58,0-6,3.72-9.91,8.76-9.91S190.85,26.49,190.85,32.09Zm-14.65.3c0,4,2.19,7.65,6,7.65s6.05-3.56,6.05-7.84c0-3.75-2-7.67-6-7.67S176.2,28.25,176.2,32.39Z"/><path class="cls-1" d="M182.08,42.53c-5.29,0-9-4.15-9-10.08,0-6.13,3.81-10.41,9.26-10.41s9,4,9,10.05C191.35,39.3,186.69,42.53,182.08,42.53ZM182.36,23c-4.86,0-8.26,3.87-8.26,9.41s3.21,9.08,8,9.08c5,0,8.27-3.71,8.27-9.44C190.35,26.67,187.14,23,182.36,23Zm-.14,17.5c-4.28,0-6.52-4.1-6.52-8.15s2-8.36,6.55-8.36c4.28,0,6.52,4.11,6.52,8.17C188.77,37.11,186.08,40.54,182.22,40.54Zm0-15.51c-3.83,0-5.55,3.7-5.55,7.36,0,3.44,1.73,7.15,5.52,7.15s5.55-3.69,5.55-7.34C187.77,28.74,186,25,182.25,25Z"/><path class="cls-1" d="M202.05,22.85V34c0,4.23,1.87,6,4.39,6,2.8,0,4.59-1.85,4.59-6V22.85h2.47v11c0,5.8-3.05,8.18-7.14,8.18-3.87,0-6.78-2.22-6.78-8.07V22.85Z"/><path class="cls-1" d="M206.36,42.53c-2.72,0-7.28-1.12-7.28-8.57V22.35h3.47V34c0,3.56,1.38,5.52,3.89,5.52,2.72,0,4.09-1.86,4.09-5.52V22.35H214v11.5C214,39.36,211.21,42.53,206.36,42.53Zm-6.28-19.18V34c0,4.95,2.17,7.57,6.28,7.57,4.28,0,6.64-2.73,6.64-7.68V23.35h-1.47V34c0,5.67-3.19,6.52-5.09,6.52-1.47,0-4.89-.64-4.89-6.52V23.35Z"/><path class="cls-1" d="M226.91,24.92h-5.74V22.85h14v2.07h-5.77v16.8h-2.46Z"/><path class="cls-1" d="M229.87,42.22h-3.46V25.42h-5.74V22.35h15v3.07h-5.77Zm-2.46-1h1.46V24.42h5.77V23.35h-13v1.07h5.74Z"/><path class="cls-1" d="M313.5,67H33.5a33.5,33.5,0,0,1,0-67h280a33.5,33.5,0,0,1,0,67ZM33.5,10a23.5,23.5,0,0,0,0,47h280a23.5,23.5,0,0,0,0-47Z"/></g></g></svg>