<svg xmlns="http://www.w3.org/2000/svg" viewBox="0 0 50 40.74"><defs><style>.cls-1{fill:#603813;}</style></defs><g id="Layer_2" data-name="Layer 2"><g id="LOGIN"><path class="cls-1" d="M49.59,5l-.06,0a20.27,20.27,0,0,1-5,1.34.48.48,0,0,1-.2-.05A10.49,10.49,0,0,0,48.67.72L48,1.09a21,21,0,0,1-3.37,1.48c-.7.25-1.45.38-2.17.59A.54.54,0,0,1,41.89,3,10,10,0,0,0,38.07.56,9.27,9.27,0,0,0,35.17,0a1.88,1.88,0,0,1-.33.05,5.28,5.28,0,0,1-.56,0,1.42,1.42,0,0,1-.2,0c-.56.07-1.14.1-1.69.22A10.33,10.33,0,0,0,25.2,6.15,9.88,9.88,0,0,0,24.35,10a12.19,12.19,0,0,0,.19,2.49.15.15,0,0,1-.1.13l-.87-.06a24.17,24.17,0,0,1-3.17-.44c-.5-.11-1-.21-1.48-.33A29.73,29.73,0,0,1,13.2,9.65a36.93,36.93,0,0,1-3.46-2l-.17,0V7.57l-.26.08.15-.18L8.42,6.73c0,.07-.06.15-.17.08s-.19-.17-.1-.32l-.06,0A27.82,27.82,0,0,1,5.4,4.05c-.5-.52-1-1-1.46-1.58-.18-.19-.34-.4-.53-.62A10.24,10.24,0,0,0,2.28,9.32,10.27,10.27,0,0,0,6.5,15.57a10.19,10.19,0,0,1-4.56-1.26A10.09,10.09,0,0,0,4.2,20.88a10.32,10.32,0,0,0,5.88,3.66,8.53,8.53,0,0,1-2.17.34c-.5,0-1,0-1.51,0a2.37,2.37,0,0,0-.46,0,1.3,1.3,0,0,0-.33.07s0,.05,0,.08a10.2,10.2,0,0,0,4.78,5.63,9.64,9.64,0,0,0,4,1.21l.71.06-.6.44a21.16,21.16,0,0,1-4,2.28,19.61,19.61,0,0,1-3.9,1.22l-1.44.27-.17.1.09,0v0l-.53.07v-.06H4.7a.33.33,0,0,0,.14,0H4.06A25,25,0,0,1,0,36.14c.27.2.54.36.81.53A29.36,29.36,0,0,0,6,39.08a28.8,28.8,0,0,0,4.91,1.27c.67.11,1.35.17,2,.25l1.91.08s.05,0,.08,0a.9.9,0,0,0,.23,0l1.2,0h-1v-.22a1.16,1.16,0,0,1,.18,0h.88a1.16,1.16,0,0,1,.18,0v.08l.47,0v0l-.47,0v.07c.61,0,1.22,0,1.83-.07.82-.06,1.64-.16,2.46-.28a28.8,28.8,0,0,0,8.52-2.78,26.3,26.3,0,0,0,3.47-2.14,29,29,0,0,0,3.71-3.2l.66-.7.32-.35.11-.16c.33-.39.67-.78,1-1.19a30.86,30.86,0,0,0,3.61-5.95,28.77,28.77,0,0,0,2-5.8,31.86,31.86,0,0,0,.6-3.38c.13-1.09.15-2.19.2-3.29,0-.38,0-.76,0-1.14a.33.33,0,0,1,.09-.21c.44-.36.88-.7,1.32-1.05.21-.17.4-.36.6-.53l1-1.06.14-.11.39-.47,1-1.25a5.54,5.54,0,0,0,.5-.76Zm-4.75,7.1h0V10.62h0Z"/><path class="cls-1" d="M4.7,36.24H4.57v.06l.53-.07v0l-.09,0,.17-.1-1.13.12h.78A.33.33,0,0,1,4.7,36.24Z"/><path class="cls-1" d="M12.88,40.6l.07,0,1.92.1s0,0-.08,0Z"/><path class="cls-1" d="M8.25,6.81c.11.07.13,0,.17-.08l-.27-.24C8.06,6.64,8.13,6.73,8.25,6.81Z"/><path class="cls-1" d="M6.4,24.85l-.87-.14.08.18a1.3,1.3,0,0,1,.33-.07A2.37,2.37,0,0,1,6.4,24.85Z"/><path class="cls-1" d="M34.84.05a1.88,1.88,0,0,0,.33,0H34.08a1.42,1.42,0,0,0,.2,0A5.28,5.28,0,0,0,34.84.05Z"/><path class="cls-1" d="M9.58,7.57V7.7l.17,0-.27-.19-.15.18Z"/><path class="cls-1" d="M17,40.61v0l-.47,0H15.26v.07H16.5Z"/><path class="cls-1" d="M16.5,40.48H15.26v.08H16.5Z"/><path class="cls-1" d="M44.83,12.08h0V10.63h0Z"/><path class="cls-1" d="M15.26,40.67v0h1.23v0Z"/><path class="cls-1" d="M16.32,40.44h-.88a1.16,1.16,0,0,0-.18,0H16.5A1.16,1.16,0,0,0,16.32,40.44Z"/><path class="cls-1" d="M16.5,40.63H15.26v0H16.5Z"/></g></g></svg>