<svg xmlns="http://www.w3.org/2000/svg" viewBox="0 0 491 512"><defs><style>.cls-1{fill:#ff2121;}.cls-2{fill:#212121;}.cls-3{fill:#fff;}.cls-4{fill:#4f4f4f;}</style></defs><g id="Layer_2" data-name="Layer 2"><g id="page_1"><path id="red_ring" class="cls-1" d="M320.54,20.07A147.5,147.5,0,0,0,185.17,109V226.1a147.48,147.48,0,1,0,135.37-206Zm1,271.5a124,124,0,0,1-113.86-74.78V118.28A124,124,0,1,1,321.5,291.57Z"/><path id="dark_circle" class="cls-2" d="M235,512c141.38,0,256-114.62,256-256S376.38,0,235,0C129.74,0,39.34,63.53,0,154.34V357.66C39.34,448.47,129.74,512,235,512Z"/><g id="logo"><path class="cls-3" d="M266.92,254.92H283v3.14H270.12v10.05H283v3.14H270.12V287h-3.2Z"/><path class="cls-3" d="M301.6,254.92h3.21V287H301.6Z"/><path class="cls-3" d="M323.42,254.92h3.2v29H339V287H323.42Z"/><path class="cls-3" d="M353.85,254.92h18.39v3.14H357.06v10.05h15.05v3.14H357.06v12.61h15.05V287H353.85Z"/><path class="cls-3" d="M108.41,252.32h6.39a36.87,36.87,0,0,1,7.42.48,8.26,8.26,0,0,1,4.49,2.78,9,9,0,0,1,0,10.58,8.36,8.36,0,0,1-4.69,2.8,41.13,41.13,0,0,1-8.15.53h-2.29V284.4h-3.21Zm3.21,3.14v10.89l5.43.06a14.2,14.2,0,0,0,4.82-.6,5,5,0,0,0,2.4-1.93,5.4,5.4,0,0,0,.87-3,5.31,5.31,0,0,0-.87-2.95A4.86,4.86,0,0,0,122,256a13.71,13.71,0,0,0-4.67-.57Z"/><path class="cls-3" d="M113,285.8h-6V250.93h7.79a37.41,37.41,0,0,1,7.75.52,9.6,9.6,0,0,1,5.23,3.24,10.35,10.35,0,0,1,0,12.35,9.69,9.69,0,0,1-5.44,3.28,41.93,41.93,0,0,1-8.48.56H113Zm-3.2-2.79h.41V268.09h3.69a39.93,39.93,0,0,0,7.83-.49,6.91,6.91,0,0,0,3.93-2.32,6.71,6.71,0,0,0,1.39-4.41,6.62,6.62,0,0,0-1.43-4.4,6.8,6.8,0,0,0-3.75-2.31,34.08,34.08,0,0,0-7.08-.44h-5Zm7.24-15.2-6.83-.09V254.07h7.07a14.86,14.86,0,0,1,5.19.66,6.22,6.22,0,0,1,3,2.44,6.69,6.69,0,0,1,1.1,3.71,6.76,6.76,0,0,1-1.1,3.76,6.3,6.3,0,0,1-3.05,2.47A15.26,15.26,0,0,1,117.05,267.81ZM113,265l4,0a12.49,12.49,0,0,0,4.3-.51,3.59,3.59,0,0,0,1.74-1.4,4.14,4.14,0,0,0,0-4.42,3.51,3.51,0,0,0-1.65-1.36,12,12,0,0,0-4.16-.47H113Z"/><path class="cls-3" d="M149.85,252.32h6.39a38.63,38.63,0,0,1,7.24.44,8.28,8.28,0,0,1,4.65,2.8,8,8,0,0,1,1.79,5.3,8.59,8.59,0,0,1-1.23,4.61,7.78,7.78,0,0,1-3.53,3,16.17,16.17,0,0,1-6.32,1l11.54,14.89h-4l-11.54-14.89h-1.81V284.4h-3.21Zm3.21,3.14v10.91l5.53,0a13.68,13.68,0,0,0,4.75-.61,5,5,0,0,0,2.4-1.95,5.41,5.41,0,0,0,.86-3,5.2,5.2,0,0,0-.87-2.93,4.89,4.89,0,0,0-2.29-1.89,13.89,13.89,0,0,0-4.72-.57Z"/><path class="cls-3" d="M173.22,285.8h-7.49l-11.27-14.55V285.8h-6V250.93h7.78a39.17,39.17,0,0,1,7.56.47,9.64,9.64,0,0,1,5.4,3.27,9.42,9.42,0,0,1,2.11,6.19,9.93,9.93,0,0,1-1.44,5.34,9.12,9.12,0,0,1-4.14,3.55,13.87,13.87,0,0,1-4.15,1ZM167.1,283h.43L156,268.13l2.83,0a14.78,14.78,0,0,0,5.77-.92,6.28,6.28,0,0,0,2.9-2.46,7.1,7.1,0,0,0,1-3.87,6.6,6.6,0,0,0-1.46-4.4,6.86,6.86,0,0,0-3.89-2.34,36.24,36.24,0,0,0-6.93-.4h-5V283h.41v-14.9h3.9Zm-8.51-15.2-6.93-.06V254.07h7.06a15.18,15.18,0,0,1,5.23.66,6.26,6.26,0,0,1,2.94,2.42,6.52,6.52,0,0,1,1.11,3.7,6.8,6.8,0,0,1-1.09,3.75,6.35,6.35,0,0,1-3.06,2.5A15,15,0,0,1,158.59,267.81ZM154.46,265l4.14,0a11.85,11.85,0,0,0,4.22-.52,3.56,3.56,0,0,0,1.75-1.41,4,4,0,0,0,.64-2.24,3.8,3.8,0,0,0-.64-2.16,3.45,3.45,0,0,0-1.65-1.36,12.15,12.15,0,0,0-4.2-.47h-4.26Z"/><path class="cls-3" d="M127.13,221.71V220h9.57v1.71h-3.9v15.75H131V221.71Z"/><path class="cls-3" d="M151.58,220h1.75v7.32h8.89V220H164v17.46h-1.74V229h-8.89v8.43h-1.75Z"/><path class="cls-3" d="M178.85,220h10v1.71H180.6v5.47h8.19v1.71H180.6v6.86h8.19v1.71h-9.94Z"/><path class="cls-3" d="M221.64,235.26A15.51,15.51,0,0,1,233,239.8a15.72,15.72,0,0,1-11.13,26.88,15.32,15.32,0,0,1-11.23-4.55,15,15,0,0,1-4.58-11,16,16,0,0,1,2.08-8,15.44,15.44,0,0,1,13.48-7.85Zm.14,2.91a12.76,12.76,0,0,0-10.94,6.39,12.88,12.88,0,0,0-1.67,6.53,12.57,12.57,0,0,0,12.61,12.68,12.72,12.72,0,0,0,6.44-1.69,12,12,0,0,0,4.63-4.62,13,13,0,0,0,1.66-6.51,12.74,12.74,0,0,0-1.66-6.44,12.41,12.41,0,0,0-4.68-4.61A12.68,12.68,0,0,0,221.78,238.17Z"/><path class="cls-3" d="M221.89,267.61A16.29,16.29,0,0,1,210,262.79a16,16,0,0,1-4.85-11.69,17,17,0,0,1,2.2-8.45,16.34,16.34,0,0,1,14.29-8.32,16.46,16.46,0,0,1,12,4.81,16.65,16.65,0,0,1-11.78,28.47Zm-.25-31.42a14.48,14.48,0,0,0-7.33,2,14.33,14.33,0,0,0-5.34,5.42,15.13,15.13,0,0,0-2,7.53,14,14,0,0,0,4.3,10.37,14.31,14.31,0,0,0,10.58,4.28,14.84,14.84,0,0,0,10.47-25.29A14.67,14.67,0,0,0,221.64,236.19Zm.14,28.51a13.5,13.5,0,0,1-13.54-13.61,13.91,13.91,0,0,1,1.79-7,13.67,13.67,0,0,1,23.62,0,13.55,13.55,0,0,1,1.79,6.9,13.86,13.86,0,0,1-1.79,7,13,13,0,0,1-5,5A13.75,13.75,0,0,1,221.78,264.7Zm0-25.6A11.81,11.81,0,0,0,211.65,245a12.08,12.08,0,0,0-1.55,6.07,11.64,11.64,0,0,0,11.68,11.75,11.9,11.9,0,0,0,6-1.57A11.13,11.13,0,0,0,232,257a12.09,12.09,0,0,0,1.55-6.06,11.81,11.81,0,0,0-1.54-6,11.51,11.51,0,0,0-4.33-4.26A11.75,11.75,0,0,0,221.78,239.1Z"/><path class="cls-3" d="M199.89,283.39a25.49,25.49,0,0,1,21.83-12.76,25.28,25.28,0,0,1,12.76,3.46,24.76,24.76,0,0,1,9.33,9.2,23.88,23.88,0,0,1,1.67,3.64h6.39a29.73,29.73,0,0,0-7.72-13.05q-9.14-9-22.7-9.05A30.53,30.53,0,0,0,205.9,269a30.17,30.17,0,0,0-11.35,11.51,32,32,0,0,0-2.72,6.43h6.42A25.18,25.18,0,0,1,199.89,283.39Z"/></g><path class="cls-4" d="M108.67,319.6l1.24-8.62h.14l3.5,7.07L117,311h.14l1.24,8.62h-.84l-.85-6.16-3,6.16h-.22l-3.09-6.21-.84,6.21Z"/><path class="cls-4" d="M126.31,313.22v6.38h-.81v-1.1a3.52,3.52,0,0,1-1.15.95,3.17,3.17,0,0,1-1.41.31,3.09,3.09,0,0,1-2.31-1,3.28,3.28,0,0,1-1-2.39,3.21,3.21,0,0,1,1-2.35,3.15,3.15,0,0,1,2.32-1,3.07,3.07,0,0,1,1.43.33,3.3,3.3,0,0,1,1.11,1v-1.18Zm-3.28.63a2.41,2.41,0,0,0-1.26.34,2.38,2.38,0,0,0-.92.94,2.55,2.55,0,0,0,0,2.58,2.52,2.52,0,0,0,.93,1A2.5,2.5,0,0,0,123,319a2.6,2.6,0,0,0,1.27-.34,2.35,2.35,0,0,0,.93-.92,2.78,2.78,0,0,0-.4-3.16A2.45,2.45,0,0,0,123,313.85Z"/><path class="cls-4" d="M128.16,313.22H129v1.15a3.22,3.22,0,0,1,1.09-1,2.62,2.62,0,0,1,1.3-.33,2.3,2.3,0,0,1,1.27.36,2.15,2.15,0,0,1,.81,1,5.08,5.08,0,0,1,.27,1.92v3.28h-.82v-3a7.5,7.5,0,0,0-.09-1.47,1.63,1.63,0,0,0-.55-.95,1.62,1.62,0,0,0-1.06-.32,2,2,0,0,0-1.33.49,2.35,2.35,0,0,0-.78,1.22,9.2,9.2,0,0,0-.11,1.73v2.34h-.82Z"/><path class="cls-4" d="M141.83,313.22v6.38H141v-1.1a3.55,3.55,0,0,1-1.16.95,3.15,3.15,0,0,1-1.4.31,3.08,3.08,0,0,1-2.31-1,3.28,3.28,0,0,1-1-2.39,3.24,3.24,0,0,1,1-2.35,3.17,3.17,0,0,1,2.33-1,3,3,0,0,1,1.42.33,3.24,3.24,0,0,1,1.12,1v-1.18Zm-3.28.63a2.44,2.44,0,0,0-1.27.34,2.52,2.52,0,0,0-.92.94,2.59,2.59,0,0,0-.34,1.29,2.54,2.54,0,0,0,2.52,2.59,2.64,2.64,0,0,0,1.28-.34,2.42,2.42,0,0,0,.93-.92,2.7,2.7,0,0,0,.32-1.31,2.54,2.54,0,0,0-.73-1.85A2.41,2.41,0,0,0,138.55,313.85Z"/><path class="cls-4" d="M149.17,313.22H150v5.08a5.92,5.92,0,0,1-.24,2,2.52,2.52,0,0,1-1.12,1.35,3.64,3.64,0,0,1-1.91.48,4.2,4.2,0,0,1-1.47-.24,2.93,2.93,0,0,1-1.07-.62,3.75,3.75,0,0,1-.75-1.14h.89a2.36,2.36,0,0,0,.94.94,3,3,0,0,0,1.42.3,3,3,0,0,0,1.42-.31,1.9,1.9,0,0,0,.82-.79,3.39,3.39,0,0,0,.25-1.53v-.32a3.18,3.18,0,0,1-1.13.9,3.3,3.3,0,0,1-1.42.31,3.35,3.35,0,0,1-1.66-.44,3.17,3.17,0,0,1-1.62-2.79,3.29,3.29,0,0,1,.44-1.65,3.37,3.37,0,0,1,2.86-1.66,3,3,0,0,1,1.33.3,3.52,3.52,0,0,1,1.2,1Zm-2.42.63a2.55,2.55,0,0,0-1.3.34,2.31,2.31,0,0,0-.93.93,2.54,2.54,0,0,0-.34,1.29,2.31,2.31,0,0,0,.7,1.73,2.76,2.76,0,0,0,3.64,0,2.41,2.41,0,0,0,.69-1.79,2.62,2.62,0,0,0-.32-1.29,2.38,2.38,0,0,0-.89-.89A2.51,2.51,0,0,0,146.75,313.85Z"/><path class="cls-4" d="M157.11,317.48l.69.37a3.75,3.75,0,0,1-.78,1.08,3.16,3.16,0,0,1-1,.62,3.62,3.62,0,0,1-1.26.21,3,3,0,0,1-2.44-1,3.42,3.42,0,0,1-.88-2.31,3.37,3.37,0,0,1,.74-2.16,3,3,0,0,1,2.53-1.21,3.14,3.14,0,0,1,2.6,1.24,3.48,3.48,0,0,1,.71,2.18h-5.74a2.57,2.57,0,0,0,.71,1.82,2.28,2.28,0,0,0,1.7.71,2.74,2.74,0,0,0,.94-.17,2.43,2.43,0,0,0,.79-.45A4,4,0,0,0,157.11,317.48Zm0-1.71a2.84,2.84,0,0,0-.47-1,2.31,2.31,0,0,0-.83-.63,2.58,2.58,0,0,0-1.09-.24,2.33,2.33,0,0,0-1.61.6,2.71,2.71,0,0,0-.75,1.32Z"/><path class="cls-4" d="M163.58,310.86h.82v2.36h1.3v.71h-1.3v5.67h-.82v-5.67h-1.12v-.71h1.12Z"/><path class="cls-4" d="M166.93,310.76h.82v3.61a3.45,3.45,0,0,1,1.1-1,2.63,2.63,0,0,1,1.29-.33,2.27,2.27,0,0,1,1.27.36,2.24,2.24,0,0,1,.82,1,5.11,5.11,0,0,1,.26,1.92v3.28h-.82v-3a8.79,8.79,0,0,0-.08-1.47,1.7,1.7,0,0,0-.56-.95,1.59,1.59,0,0,0-1.05-.32,2,2,0,0,0-1.33.49,2.35,2.35,0,0,0-.78,1.22,8.19,8.19,0,0,0-.12,1.73v2.34h-.82Z"/><path class="cls-4" d="M179.62,317.48l.69.37a4.17,4.17,0,0,1-.78,1.08,3.2,3.2,0,0,1-1,.62,3.54,3.54,0,0,1-1.26.21,3.06,3.06,0,0,1-2.44-1,3.47,3.47,0,0,1-.88-2.31,3.38,3.38,0,0,1,.75-2.16,3,3,0,0,1,2.52-1.21,3.14,3.14,0,0,1,2.61,1.24,3.47,3.47,0,0,1,.7,2.18h-5.73a2.57,2.57,0,0,0,.71,1.82,2.26,2.26,0,0,0,1.69.71,2.8,2.8,0,0,0,.95-.17,2.29,2.29,0,0,0,.78-.45A3.73,3.73,0,0,0,179.62,317.48Zm0-1.71a2.69,2.69,0,0,0-.48-1,2.23,2.23,0,0,0-.83-.63,2.51,2.51,0,0,0-1.08-.24,2.35,2.35,0,0,0-1.62.6,2.7,2.7,0,0,0-.74,1.32Z"/><path class="cls-4" d="M188.58,313.92l-.53.55a1.89,1.89,0,0,0-1.29-.64,1,1,0,0,0-.68.26.83.83,0,0,0-.29.62.92.92,0,0,0,.24.59,3.47,3.47,0,0,0,1,.67,3.62,3.62,0,0,1,1.24.92,1.61,1.61,0,0,1,.32,1,1.79,1.79,0,0,1-.55,1.33,1.87,1.87,0,0,1-1.38.54,2.44,2.44,0,0,1-1.05-.24,2.34,2.34,0,0,1-.83-.66l.52-.58a1.78,1.78,0,0,0,1.33.7,1.2,1.2,0,0,0,.84-.31,1,1,0,0,0,.34-.75.94.94,0,0,0-.22-.62,3.72,3.72,0,0,0-1-.68,3.39,3.39,0,0,1-1.17-.88,1.64,1.64,0,0,1-.31-1,1.61,1.61,0,0,1,.49-1.21,1.74,1.74,0,0,1,1.26-.48A2.63,2.63,0,0,1,188.58,313.92Z"/><path class="cls-4" d="M190.75,310.86h.82v2.36h1.3v.71h-1.3v5.67h-.82v-5.67h-1.12v-.71h1.12Z"/><path class="cls-4" d="M194,313.22h.82v3a6.18,6.18,0,0,0,.12,1.5,1.71,1.71,0,0,0,.67.93,2.11,2.11,0,0,0,1.19.34,2,2,0,0,0,1.16-.33,1.72,1.72,0,0,0,.66-.87,6.36,6.36,0,0,0,.12-1.57v-3h.84v3.13a4.89,4.89,0,0,1-.31,2,2.35,2.35,0,0,1-.92,1.05,2.94,2.94,0,0,1-1.55.37,3,3,0,0,1-1.56-.37,2.46,2.46,0,0,1-.93-1.06,5.24,5.24,0,0,1-.31-2Z"/><path class="cls-4" d="M207.76,310.76v8.84H207v-1.1a3.55,3.55,0,0,1-1.16.95,3.15,3.15,0,0,1-1.4.31,3.06,3.06,0,0,1-2.31-1,3.28,3.28,0,0,1-1-2.39,3.24,3.24,0,0,1,1-2.35,3.17,3.17,0,0,1,2.33-1,3,3,0,0,1,1.42.33,3.24,3.24,0,0,1,1.12,1v-3.64Zm-3.28,3.09a2.44,2.44,0,0,0-1.27.34,2.52,2.52,0,0,0-.92.94,2.63,2.63,0,0,0,.93,3.54,2.52,2.52,0,0,0,1.25.34,2.64,2.64,0,0,0,1.28-.34,2.42,2.42,0,0,0,.93-.92,2.7,2.7,0,0,0,.32-1.31,2.54,2.54,0,0,0-.73-1.85A2.41,2.41,0,0,0,204.48,313.85Z"/><path class="cls-4" d="M215,317.48l.69.37a4,4,0,0,1-.78,1.08,3.2,3.2,0,0,1-1,.62,3.54,3.54,0,0,1-1.26.21,3.06,3.06,0,0,1-2.44-1,3.47,3.47,0,0,1-.88-2.31,3.38,3.38,0,0,1,.75-2.16,3,3,0,0,1,2.53-1.21,3.14,3.14,0,0,1,2.6,1.24,3.41,3.41,0,0,1,.7,2.18h-5.73a2.57,2.57,0,0,0,.71,1.82,2.26,2.26,0,0,0,1.69.71,2.8,2.8,0,0,0,.95-.17,2.29,2.29,0,0,0,.78-.45A3.73,3.73,0,0,0,215,317.48Zm0-1.71a2.69,2.69,0,0,0-.48-1,2.23,2.23,0,0,0-.83-.63,2.51,2.51,0,0,0-1.08-.24,2.35,2.35,0,0,0-1.62.6,2.78,2.78,0,0,0-.74,1.32Z"/><path class="cls-4" d="M217.41,313.22h.82v1.15a3.32,3.32,0,0,1,1.09-1,2.64,2.64,0,0,1,1.3-.33,2.27,2.27,0,0,1,1.27.36,2.24,2.24,0,0,1,.82,1,5.33,5.33,0,0,1,.26,1.92v3.28h-.82v-3a7.5,7.5,0,0,0-.09-1.47,1.5,1.5,0,0,0-1.6-1.27,2,2,0,0,0-1.33.49,2.23,2.23,0,0,0-.78,1.22,8.19,8.19,0,0,0-.12,1.73v2.34h-.82Z"/><path class="cls-4" d="M225.45,310.86h.82v2.36h1.3v.71h-1.3v5.67h-.82v-5.67h-1.12v-.71h1.12Z"/><path class="cls-4" d="M232,313.92l-.53.55a1.85,1.85,0,0,0-1.28-.64,1,1,0,0,0-.69.26.82.82,0,0,0-.28.62,1,1,0,0,0,.23.59,3.47,3.47,0,0,0,1,.67,3.68,3.68,0,0,1,1.25.92,1.68,1.68,0,0,1,.32,1,1.83,1.83,0,0,1-.55,1.33,1.9,1.9,0,0,1-1.38.54,2.45,2.45,0,0,1-1.06-.24,2.34,2.34,0,0,1-.83-.66l.52-.58a1.78,1.78,0,0,0,1.33.7,1.2,1.2,0,0,0,.84-.31,1,1,0,0,0,.35-.75,1,1,0,0,0-.23-.62,3.62,3.62,0,0,0-1-.68,3.35,3.35,0,0,1-1.18-.88,1.64,1.64,0,0,1-.31-1,1.61,1.61,0,0,1,.5-1.21,1.71,1.71,0,0,1,1.25-.48A2.59,2.59,0,0,1,232,313.92Z"/><path class="cls-4" d="M236.79,313.22h.82v1.18a3.33,3.33,0,0,1,1.12-1,3,3,0,0,1,1.41-.33,3.15,3.15,0,0,1,2.32,1,3.21,3.21,0,0,1,1,2.35,3.28,3.28,0,0,1-1,2.39,3.25,3.25,0,0,1-3.71.67,3.52,3.52,0,0,1-1.15-.95v3.43h-.82Zm3.28.63a2.41,2.41,0,0,0-1.79.74,2.54,2.54,0,0,0-.73,1.85,2.6,2.6,0,0,0,.33,1.31,2.33,2.33,0,0,0,.92.92,2.66,2.66,0,0,0,1.28.34,2.46,2.46,0,0,0,1.24-.34,2.52,2.52,0,0,0,.93-1,2.55,2.55,0,0,0,0-2.58,2.49,2.49,0,0,0-2.18-1.28Z"/><path class="cls-4" d="M244.65,313.22h.84v.94a2.88,2.88,0,0,1,.79-.83,1.59,1.59,0,0,1,.87-.27,1.45,1.45,0,0,1,.73.22l-.43.69a1,1,0,0,0-.44-.11,1.22,1.22,0,0,0-.79.33,2.28,2.28,0,0,0-.58,1.05,10.16,10.16,0,0,0-.15,2.2v2.16h-.84Z"/><path class="cls-4" d="M251.59,313.06a3.15,3.15,0,0,1,2.44,1.07,3.41,3.41,0,0,1-.05,4.63,3.37,3.37,0,0,1-4.79,0,3.3,3.3,0,0,1-.93-2.33,3.36,3.36,0,0,1,.88-2.3A3.18,3.18,0,0,1,251.59,313.06Zm0,.8a2.39,2.39,0,0,0-1.76.76,2.52,2.52,0,0,0-.74,1.83,2.64,2.64,0,0,0,.34,1.29,2.39,2.39,0,0,0,2.16,1.24,2.45,2.45,0,0,0,1.25-.32,2.51,2.51,0,0,0,.91-.92,2.63,2.63,0,0,0,.33-1.29,2.52,2.52,0,0,0-.74-1.83A2.37,2.37,0,0,0,251.59,313.86Z"/><path class="cls-4" d="M259.05,310.76v.81a2,2,0,0,0-.77-.2.82.82,0,0,0-.4.1.46.46,0,0,0-.2.22,3.8,3.8,0,0,0,0,.67v.86H259v.71h-1.33v5.67h-.82v-5.67H256v-.71h.84v-1a2.85,2.85,0,0,1,.12-1,1,1,0,0,1,.43-.47,1.39,1.39,0,0,1,.73-.18A3.36,3.36,0,0,1,259.05,310.76Z"/><path class="cls-4" d="M260.48,310.6a.67.67,0,0,1,.48,1.15.62.62,0,0,1-.48.2.61.61,0,0,1-.47-.2.68.68,0,0,1,.47-1.15Zm-.41,2.62h.82v6.38h-.82Z"/><path class="cls-4" d="M262.48,310.76h.82v8.84h-.82Z"/><path class="cls-4" d="M270.37,317.48l.69.37a4.17,4.17,0,0,1-.78,1.08,3.2,3.2,0,0,1-1,.62,3.54,3.54,0,0,1-1.26.21,3.06,3.06,0,0,1-2.44-1,3.47,3.47,0,0,1-.88-2.31,3.38,3.38,0,0,1,.75-2.16,3,3,0,0,1,2.52-1.21,3.14,3.14,0,0,1,2.61,1.24,3.47,3.47,0,0,1,.7,2.18h-5.73a2.57,2.57,0,0,0,.71,1.82,2.26,2.26,0,0,0,1.69.71,2.8,2.8,0,0,0,.95-.17,2.29,2.29,0,0,0,.78-.45A3.73,3.73,0,0,0,270.37,317.48Zm0-1.71a2.69,2.69,0,0,0-.48-1,2.23,2.23,0,0,0-.83-.63,2.51,2.51,0,0,0-1.08-.24,2.35,2.35,0,0,0-1.62.6,2.7,2.7,0,0,0-.74,1.32Z"/><path class="cls-4" d="M109.22,325a.69.69,0,0,1,.48.2.65.65,0,0,1,.19.48.64.64,0,0,1-.19.47.65.65,0,0,1-.48.2.63.63,0,0,1-.48-.2.66.66,0,0,1,0-.95A.67.67,0,0,1,109.22,325Zm-.41,2.62h.82V334h-.82Z"/><path class="cls-4" d="M111.33,327.62h.82v1.15a3.42,3.42,0,0,1,1.09-1,2.67,2.67,0,0,1,1.3-.33,2.25,2.25,0,0,1,1.27.36,2.17,2.17,0,0,1,.82,1,5.11,5.11,0,0,1,.26,1.92V334h-.82v-3a7.5,7.5,0,0,0-.09-1.47,1.57,1.57,0,0,0-.54-.95,1.62,1.62,0,0,0-1.06-.32,2,2,0,0,0-1.33.49,2.35,2.35,0,0,0-.78,1.22,8.19,8.19,0,0,0-.12,1.73V334h-.82Z"/><path class="cls-4" d="M128.33,327.62V334h-.81v-1.1a3.55,3.55,0,0,1-1.16,1,3.15,3.15,0,0,1-1.4.31,3.08,3.08,0,0,1-2.31-1,3.28,3.28,0,0,1-1-2.39,3.24,3.24,0,0,1,1-2.35,3.17,3.17,0,0,1,2.33-1,3,3,0,0,1,1.42.33,3.24,3.24,0,0,1,1.12,1v-1.18Zm-3.28.63a2.44,2.44,0,0,0-1.27.34,2.52,2.52,0,0,0-.92.94,2.59,2.59,0,0,0-.34,1.29,2.54,2.54,0,0,0,2.52,2.59,2.64,2.64,0,0,0,1.28-.34,2.42,2.42,0,0,0,.93-.92,2.7,2.7,0,0,0,.32-1.31,2.5,2.5,0,0,0-.73-1.84A2.39,2.39,0,0,0,125.05,328.25Z"/><path class="cls-4" d="M139.86,325.16V334h-.81v-1.1a3.45,3.45,0,0,1-1.16,1,3.25,3.25,0,0,1-3.71-.67,3.28,3.28,0,0,1-1-2.39,3.21,3.21,0,0,1,1-2.35,3.15,3.15,0,0,1,2.32-1,3,3,0,0,1,1.42.33,3.24,3.24,0,0,1,1.12,1v-3.64Zm-3.28,3.09a2.38,2.38,0,0,0-1.26.34,2.47,2.47,0,0,0-.93.94,2.7,2.7,0,0,0-.34,1.29,2.61,2.61,0,0,0,.35,1.29,2.57,2.57,0,0,0,.92,1,2.52,2.52,0,0,0,1.25.34,2.64,2.64,0,0,0,1.28-.34,2.42,2.42,0,0,0,.93-.92,2.7,2.7,0,0,0,.32-1.31,2.5,2.5,0,0,0-.73-1.84A2.39,2.39,0,0,0,136.58,328.25Z"/><path class="cls-4" d="M147.08,331.88l.69.37a3.75,3.75,0,0,1-.78,1.08,3.16,3.16,0,0,1-1,.62,3.64,3.64,0,0,1-1.27.21,3,3,0,0,1-2.43-1,3.43,3.43,0,0,1-.89-2.31,3.38,3.38,0,0,1,.75-2.16,3,3,0,0,1,2.53-1.21,3.14,3.14,0,0,1,2.6,1.24,3.41,3.41,0,0,1,.7,2.18h-5.73a2.57,2.57,0,0,0,.71,1.82,2.27,2.27,0,0,0,1.69.71,2.8,2.8,0,0,0,.95-.17,2.29,2.29,0,0,0,.78-.45A3.73,3.73,0,0,0,147.08,331.88Zm0-1.71a2.69,2.69,0,0,0-.48-1.05,2.23,2.23,0,0,0-.83-.63,2.51,2.51,0,0,0-1.08-.24,2.33,2.33,0,0,0-1.61.6,2.71,2.71,0,0,0-.75,1.32Z"/><path class="cls-4" d="M155.7,329l-.65.4a2.74,2.74,0,0,0-2.3-1.12,2.64,2.64,0,0,0-1.93.75,2.43,2.43,0,0,0-.77,1.82,2.66,2.66,0,0,0,.35,1.32,2.6,2.6,0,0,0,1,.95,3,3,0,0,0,1.39.34,2.79,2.79,0,0,0,2.29-1.12l.65.43a3,3,0,0,1-1.23,1.06,3.79,3.79,0,0,1-1.75.38,3.48,3.48,0,0,1-2.51-1,3.14,3.14,0,0,1-1-2.33,3.32,3.32,0,0,1,.47-1.72,3.25,3.25,0,0,1,1.28-1.24,3.69,3.69,0,0,1,1.82-.45,4.21,4.21,0,0,1,1.23.19,3.3,3.3,0,0,1,1,.51A2.67,2.67,0,0,1,155.7,329Z"/><path class="cls-4" d="M162.64,331.88l.7.37a4,4,0,0,1-.79,1.08,3.16,3.16,0,0,1-1,.62,3.54,3.54,0,0,1-1.26.21,3,3,0,0,1-2.44-1,3.42,3.42,0,0,1-.88-2.31,3.37,3.37,0,0,1,.74-2.16,3,3,0,0,1,2.53-1.21,3.11,3.11,0,0,1,2.6,1.24,3.48,3.48,0,0,1,.71,2.18h-5.74a2.61,2.61,0,0,0,.71,1.82,2.28,2.28,0,0,0,1.7.71,2.74,2.74,0,0,0,.94-.17,2.43,2.43,0,0,0,.79-.45A4,4,0,0,0,162.64,331.88Zm0-1.71a2.55,2.55,0,0,0-.47-1.05,2.31,2.31,0,0,0-.83-.63,2.58,2.58,0,0,0-1.09-.24,2.33,2.33,0,0,0-1.61.6,2.71,2.71,0,0,0-.75,1.32Z"/><path class="cls-4" d="M165.08,327.62h.82v1.15a3.22,3.22,0,0,1,1.09-1,2.62,2.62,0,0,1,1.3-.33,2.3,2.3,0,0,1,1.27.36,2.15,2.15,0,0,1,.81,1,5.08,5.08,0,0,1,.27,1.92V334h-.82v-3a7.5,7.5,0,0,0-.09-1.47,1.63,1.63,0,0,0-.55-.95,1.62,1.62,0,0,0-1.06-.32,2,2,0,0,0-1.33.49,2.35,2.35,0,0,0-.78,1.22,9.2,9.2,0,0,0-.11,1.73V334h-.82Z"/><path class="cls-4" d="M173.11,325.26h.82v2.36h1.3v.71h-1.3V334h-.82v-5.67H172v-.71h1.12Z"/><path class="cls-4" d="M176.15,327.62H177v.94a3,3,0,0,1,.79-.83,1.59,1.59,0,0,1,.87-.27,1.42,1.42,0,0,1,.72.22l-.42.69a1.08,1.08,0,0,0-.44-.11,1.2,1.2,0,0,0-.79.33,2.19,2.19,0,0,0-.58,1.05,10.16,10.16,0,0,0-.15,2.2V334h-.84Z"/><path class="cls-4" d="M186.42,327.62V334h-.81v-1.1a3.52,3.52,0,0,1-1.15,1,3.17,3.17,0,0,1-1.41.31,3.09,3.09,0,0,1-2.31-1,3.28,3.28,0,0,1-1-2.39,3.25,3.25,0,0,1,1-2.35,3.16,3.16,0,0,1,2.33-1,3.06,3.06,0,0,1,1.42.33,3.3,3.3,0,0,1,1.11,1v-1.18Zm-3.28.63a2.49,2.49,0,0,0-2.18,1.28,2.62,2.62,0,0,0,0,2.58,2.52,2.52,0,0,0,.93,1,2.5,2.5,0,0,0,1.25.34,2.6,2.6,0,0,0,1.27-.34,2.35,2.35,0,0,0,.93-.92,2.6,2.6,0,0,0,.33-1.31,2.54,2.54,0,0,0-.73-1.84A2.42,2.42,0,0,0,183.14,328.25Z"/><path class="cls-4" d="M188.14,325.16H189V334h-.82Z"/><path class="cls-4" d="M191,325a.67.67,0,0,1,.47,1.15.61.61,0,0,1-.47.2.62.62,0,0,1-.48-.2A.68.68,0,0,1,191,325Zm-.41,2.62h.82V334h-.82Z"/><path class="cls-4" d="M192.55,327.62h4.68l-3.61,5.65h3.5V334h-4.91l3.61-5.65h-3.27Z"/><path class="cls-4" d="M203.54,331.88l.69.37a4,4,0,0,1-.79,1.08,3.05,3.05,0,0,1-1,.62,3.54,3.54,0,0,1-1.26.21,3.06,3.06,0,0,1-2.44-1,3.5,3.5,0,0,1-.14-4.47,3,3,0,0,1,2.53-1.21,3.14,3.14,0,0,1,2.61,1.24,3.47,3.47,0,0,1,.7,2.18H198.7a2.66,2.66,0,0,0,.71,1.82,2.29,2.29,0,0,0,1.7.71,2.84,2.84,0,0,0,.95-.17,2.49,2.49,0,0,0,.78-.45A4,4,0,0,0,203.54,331.88Zm0-1.71a2.69,2.69,0,0,0-.48-1.05,2.31,2.31,0,0,0-.83-.63,2.58,2.58,0,0,0-1.09-.24,2.35,2.35,0,0,0-1.61.6,2.62,2.62,0,0,0-.74,1.32Z"/><path class="cls-4" d="M212.33,325.16V334h-.81v-1.1a3.52,3.52,0,0,1-1.15,1,3.17,3.17,0,0,1-1.41.31,3.09,3.09,0,0,1-2.31-1,3.28,3.28,0,0,1-1-2.39,3.25,3.25,0,0,1,1-2.35,3.16,3.16,0,0,1,2.33-1,3.06,3.06,0,0,1,1.42.33,3.3,3.3,0,0,1,1.11,1v-3.64Zm-3.28,3.09a2.49,2.49,0,0,0-2.18,1.28,2.62,2.62,0,0,0,0,2.58,2.52,2.52,0,0,0,.93,1,2.5,2.5,0,0,0,1.25.34,2.6,2.6,0,0,0,1.27-.34,2.29,2.29,0,0,0,.93-.92,2.6,2.6,0,0,0,.33-1.31,2.54,2.54,0,0,0-.73-1.84A2.42,2.42,0,0,0,209.05,328.25Z"/><path class="cls-4" d="M216.65,327.62h.84l2,4.63,2-4.63h.15l2.05,4.63,2-4.63h.85L223.75,334h-.15l-2-4.56-2,4.56h-.16Z"/><path class="cls-4" d="M233.84,327.62V334H233v-1.1a3.55,3.55,0,0,1-1.16,1,3.15,3.15,0,0,1-1.4.31,3.06,3.06,0,0,1-2.31-1,3.28,3.28,0,0,1-1-2.39,3.24,3.24,0,0,1,1-2.35,3.17,3.17,0,0,1,2.33-1,3,3,0,0,1,1.42.33,3.24,3.24,0,0,1,1.12,1v-1.18Zm-3.28.63a2.44,2.44,0,0,0-1.27.34,2.52,2.52,0,0,0-.92.94,2.59,2.59,0,0,0-.34,1.29,2.54,2.54,0,0,0,2.52,2.59,2.64,2.64,0,0,0,1.28-.34,2.42,2.42,0,0,0,.93-.92,2.7,2.7,0,0,0,.32-1.31,2.5,2.5,0,0,0-.73-1.84A2.39,2.39,0,0,0,230.56,328.25Z"/><path class="cls-4" d="M235,327.62h.86l2.19,4.91,2.13-4.91h.87l-3.8,8.71h-.86l1.22-2.81Z"/></g></g></svg>