<svg xmlns="http://www.w3.org/2000/svg" viewBox="0 0 656.4 437.79"><defs><style>.cls-1{fill:#fff;}</style></defs><g id="Layer_2" data-name="Layer 2"><g id="HOME"><path d="M252.28,240.27l-9.31,2q-15.08,27.94-27.27,71.39a221,221,0,0,1-12.86,33.58,180.3,180.3,0,0,1-20.61,34Q138.1,437.79,69.39,437.79q-31.92,0-50.77-13.74A45,45,0,0,1,1.55,399.22,54.06,54.06,0,0,1,0,385q0-8.64,4.54-20.51a54.52,54.52,0,0,1,14.75-21.06q10.18-9.19,16.18-9.64c1.48,0,2.36.22,2.66.67s-.37,1.4-2.44,2.43Q28.82,339.82,20.4,350,7.31,365.53,7.32,385a36.86,36.86,0,0,0,9.53,25.49q12,13.31,33.92,18.18,9.75,2.22,14.85,2.22t10.53-.11a68.09,68.09,0,0,0,14.3-2.33,125.32,125.32,0,0,0,35.25-15.07,155.34,155.34,0,0,0,28.82-22.51,201.09,201.09,0,0,0,22.16-26.71Q194,339.14,202.84,315q15.53-41,33.26-71.61-35.25,7.32-56.09,16.19-21.28,9.3-33,20.83-14.64,14.87-18.85,33.48a40.84,40.84,0,0,0-1.33,9.75q0,9.31,5.1,15.08t11,5.76a34.72,34.72,0,0,0,12.63-2.66,29,29,0,0,0,11.86-8.87,33.88,33.88,0,0,0,7.1-21.5c0-4.14-.59-6.72-1.78-7.76-.29-.44-.15-1.11.45-2,1.47-2.22,2.88-2.22,4.21,0a25.79,25.79,0,0,1,2.88,12.08q0,6.54-4.21,14.3-7.54,14.19-21.73,19.5a42.74,42.74,0,0,1-15.18,2.66q-8.1,0-17.4-7.31t-9.32-20.4a46.43,46.43,0,0,1,.89-8.64q12.64-57,126.36-76.26a52.13,52.13,0,0,1,7.21-10.42q5.21-6.21,8.86-7.43a20.16,20.16,0,0,1,6.1-1.22c4.88,0,7.39,2.08,7.54,6.21A11.51,11.51,0,0,1,264,235,51.1,51.1,0,0,1,252.28,240.27Zm-5.54-3.55q15.08-3.1,14.41-8.42a2.79,2.79,0,0,0-3-2.66Q255.6,225.64,246.74,236.72Z"/><path d="M213.26,385.47q0-18.39,17.73-61.63H219.47a1.41,1.41,0,0,1-1.44-1.22,3.43,3.43,0,0,1,.22-2.43,1.78,1.78,0,0,1,1.66-1.22h13.3q8-17.52,14.85-29.26t12.64-15.86q5.76-4.1,8.31-4.1a10.63,10.63,0,0,1,3.66.45q5.1,2.43,5.1,10.08t-5.1,18.51q-5.1,10.88-10,20.18h10.64a1.43,1.43,0,0,1,1.44,1.22,3.54,3.54,0,0,1-.22,2.43,1.78,1.78,0,0,1-1.67,1.22H260a160.88,160.88,0,0,1-29.49,36.58L225.45,383a25.38,25.38,0,0,0-.66,5.66,11.79,11.79,0,0,0,1.55,5.65,5.16,5.16,0,0,0,4.88,2.88,17.24,17.24,0,0,0,8.42-2.66q10.63-8,23.5-33.47a4.19,4.19,0,0,1,2.1-2.44c.81-.3,1.3-.11,1.45.55a6.37,6.37,0,0,1-.67,3.22q-7.32,15.3-11.53,21.72-12,19.29-25.49,19.29a14.33,14.33,0,0,1-11.31-5.1A18.86,18.86,0,0,1,213.26,385.47Zm41.68-61.63H244.52q-2.67,6.21-12,29.49A169.46,169.46,0,0,0,254.94,323.84Zm2.88-4.87q14.63-26.16,14.63-36.36c0-2.95-.52-4.43-1.55-4.43q-2.44,0-7.43,7.09T246.73,319Z"/><path d="M319.22,361.2q-7.31,14.08-8.75,21.06a57.82,57.82,0,0,0-1.44,11.3c0,2.89,1.1,4.33,3.32,4.33q4.22,0,10.42-7.76,9.09-11.31,18-29.49c.59-1.33,1.25-2.06,2-2.21,1.18-.45,1.78,0,1.78,1.33a6.85,6.85,0,0,1-.67,2.66q-20.4,41.24-34.36,41.23-6.44,0-10.42-6.21a17.1,17.1,0,0,1-2-8.86,52,52,0,0,1,2.22-13.53q-17.73,28.6-30.59,28.6a10.27,10.27,0,0,1-6.43-2.22q-6.65-4.65-6.65-16,0-21.72,18.84-44.11a49,49,0,0,1,26.16-16.19,31.79,31.79,0,0,1,8-1.1,23.56,23.56,0,0,1,17.3,7.09q2.21,2.44,1.33,4.66c-.6,1.47-1.85,2.07-3.77,1.77q-2.44-8-10.65-8-9.53,0-23.49,15.07a121.6,121.6,0,0,0-14.86,20.84q-8.64,14.42-8.64,23.06t5.54,8.64q13.31,0,34.8-40.79,4.22-8.19,7.1-11.19a9.7,9.7,0,0,1,7.31-3,38.5,38.5,0,0,1,4.55.67,14,14,0,0,0,5.43.22Q326.54,347.12,319.22,361.2Z"/><path d="M350.92,366.52q-1.77,5.21-3,10a38.39,38.39,0,0,0-1.22,9.53,18.29,18.29,0,0,0,2.22,8.86A7.47,7.47,0,0,0,356,399q8,0,15.52-10.76a228.29,228.29,0,0,0,16-27.37c1.18-2.07,2.29-2.89,3.33-2.44a1.75,1.75,0,0,1,.44,2.32c-.44,1-1.37,3-2.77,6.21s-2.44,5.4-3.1,6.65-1.85,3.48-3.55,6.65a47.6,47.6,0,0,1-4.43,7.1q-1.89,2.33-5.1,6a28.11,28.11,0,0,1-6.1,5.43q-7.77,4.89-14.63,4.88t-10.64-3a11.74,11.74,0,0,1-4.55-6.43,27.83,27.83,0,0,1-.77-6.1q0-2.65.22-6.87a65,65,0,0,1,2.77-13.74q2.1-6.66,2.33-7.54a310.33,310.33,0,0,1,14.52-40.13q9.42-21.72,16-32.69t10.31-15q7.53-8,14.85-8,5.1,0,6.87,7.32a20.26,20.26,0,0,1,.23,3.32q0,7.54-5.32,19.07-19.08,42.34-45.45,66.5C352.77,361,352.11,363.05,350.92,366.52Zm26.16-42.23q11.09-17.52,16.3-29.82t5.21-16.74c0-3-.52-4.43-1.55-4.43-1.49,0-4.29,2.92-8.43,8.76s-9.72,16.33-16.74,31.48S359.13,342,354.69,353.33A175.21,175.21,0,0,0,377.08,324.29Z"/><path d="M396.37,398.33q4.2,0,8.86-4.21,8.2-8.21,20.84-33.48c1-2.21,2.07-2.88,3.11-2a2,2,0,0,1,.44,1.44q0,1-1.77,4.88t-3.22,7q-1.44,3.1-5.54,10.09a71.29,71.29,0,0,1-7.43,10.75q-9.09,10.43-17.18,10.42t-11.64-4.88a18,18,0,0,1-3.54-10.86,35,35,0,0,1,2.88-13.08l14.19-36.14a11.63,11.63,0,0,0,.44-3.54q0-2.22-2.66-5.77l12.19-.22q5.1,0,6,1.89c.59,1.25.14,3.21-1.33,5.87l-17.74,41.46q-3.76,8.21-3.77,14Q389.49,398.34,396.37,398.33ZM418.09,317a10.28,10.28,0,0,1-6.87,2.66,7.38,7.38,0,0,1-6-2.66,8.13,8.13,0,0,1-1.77-6.43,10.76,10.76,0,0,1,3.77-6.43,10.33,10.33,0,0,1,6.87-2.66,7.73,7.73,0,0,1,6.1,2.66,7.36,7.36,0,0,1,1.66,6.43A10.7,10.7,0,0,1,418.09,317Z"/><path d="M482.38,361.2q-7.32,14.08-8.76,21.06a58.6,58.6,0,0,0-1.44,11.3q0,4.33,3.33,4.33,4.2,0,10.42-7.76,9.09-11.31,17.95-29.49c.59-1.33,1.26-2.06,2-2.21,1.18-.45,1.77,0,1.77,1.33a7,7,0,0,1-.66,2.66q-20.4,41.24-34.36,41.23-6.44,0-10.42-6.21a17.1,17.1,0,0,1-2-8.86,52,52,0,0,1,2.22-13.53q-17.74,28.6-30.59,28.6a10.27,10.27,0,0,1-6.43-2.22q-6.66-4.65-6.65-16,0-21.72,18.84-44.11a48.94,48.94,0,0,1,26.16-16.19,31.67,31.67,0,0,1,8-1.1A23.52,23.52,0,0,1,489,331.16q2.22,2.44,1.33,4.66c-.59,1.47-1.85,2.07-3.77,1.77q-2.44-8-10.64-8-9.52,0-23.5,15.07a121.57,121.57,0,0,0-14.85,20.84Q429,379.94,429,388.58t5.55,8.64q13.29,0,34.8-40.79,4.21-8.19,7.09-11.19a9.71,9.71,0,0,1,7.32-3,38.5,38.5,0,0,1,4.55.67,14,14,0,0,0,5.43.22Q489.7,347.12,482.38,361.2Z"/><path d="M570.83,330.5Q543.56,378.38,543.56,393c0,3.85,1.41,5.76,4.22,5.76q11.29,0,30.37-38.35,1.32-3.1,2.66-2.44a2,2,0,0,1,1.33,1.78,5.61,5.61,0,0,1-.89,2.66q-11.76,23.71-19.84,32.7t-16.18,9q-8.1,0-12.31-6.2c-1.48-1.92-2.21-4.55-2.21-7.87a41.57,41.57,0,0,1,2.21-12.08q2.22-7.1,12.2-23.06,2.43-4,2.43-6.32t-3.76-2.33q-3.78,0-14.41,10-16,14.63-30.82,43.89a5.89,5.89,0,0,1-3,2.78,29.8,29.8,0,0,1-6.54.77c-3.25.15-5.4.52-6.43,1.11q3.54-7.1,14-29,18.62-38.79,24.38-44.34a9.89,9.89,0,0,1,7.32-2.66,36.29,36.29,0,0,1,4.54.67,14,14,0,0,0,5.43.22Q530,334,511.42,371.29a179.68,179.68,0,0,1,18.95-20.51,108.62,108.62,0,0,1,20.51-14.19q12-6.54,17.51-6.54A6.42,6.42,0,0,1,570.83,330.5Z"/><path d="M618.49,325.62q16.18,0,16.19,20.39,0,9.32-4.88,19.95a79,79,0,0,1-18.62,26.16q2.88,5.55,10.42,5.55,6,0,11.3-6a60.52,60.52,0,0,0,9.53-12.08q2.88-5.21,4.22-7.65c.88-1.62,2-3.95,3.43-7s2.25-4.88,2.55-5.55a1.57,1.57,0,0,1,1.55-1c1.48-.15,2.22.37,2.22,1.55a3.64,3.64,0,0,1-.44,1.55l-1.33,3.1c-.89,2.08-1.55,3.55-2,4.44s-1.22,2.47-2.33,4.76-2.07,4.11-2.88,5.44-1.92,3.1-3.32,5.32a53.16,53.16,0,0,1-3.77,5.32q-1.67,2-4.1,4.43a24.86,24.86,0,0,1-4.66,3.77,20.38,20.38,0,0,1-10.42,3.32q-9.09,0-14.19-5.76-10.19,7.54-18.84,7.54-16.18,0-16.18-20.4,0-9.3,4.87-19.95a74.42,74.42,0,0,1,18.74-26.38Q607.63,325.62,618.49,325.62Zm2.44,6.87q-6,0-14.19,8T592.11,362.2q-7.75,16-7.76,26.16t7.76,10.19q5.53,0,12.42-6A18.66,18.66,0,0,1,601,381.7q.43-9.52,7.76-9.53a6.26,6.26,0,0,1,4.76,2,5.64,5.64,0,0,1,1.89,3.66,14.41,14.41,0,0,1-.44,3.43,124.82,124.82,0,0,0,8.64-15.74,50.18,50.18,0,0,0,5.54-22.17Q629.13,332.49,620.93,332.49Z"/><path class="cls-1" d="M214,35.59a25.69,25.69,0,0,1-5.65,8.18,25.05,25.05,0,0,1-8.32,5.34,28.06,28.06,0,0,1-20.09,0,25.05,25.05,0,0,1-8.25-5.21,24.55,24.55,0,0,1-5.59-8,25.52,25.52,0,0,1-2-10.3,25.63,25.63,0,0,1,2.15-10.72,24,24,0,0,1,5.79-8,25.61,25.61,0,0,1,8.53-5.06A30.06,30.06,0,0,1,190.85,0a25.71,25.71,0,0,1,10.58,2.08,24.13,24.13,0,0,1,7.95,5.59,24.42,24.42,0,0,1,5,8.08,26.69,26.69,0,0,1,1.73,9.57A25.14,25.14,0,0,1,214,35.59Zm-7.59-18.73a27.35,27.35,0,0,0-3.26-7.81,18.77,18.77,0,0,0-5.45-5.69A13.54,13.54,0,0,0,190,1.18a13.83,13.83,0,0,0-7.8,2.18A17.86,17.86,0,0,0,176.81,9a26.22,26.22,0,0,0-3.12,7.87,40,40,0,0,0-1,8.92,36.72,36.72,0,0,0,1.11,9.08,25.33,25.33,0,0,0,3.29,7.7,17.34,17.34,0,0,0,5.48,5.34,14.37,14.37,0,0,0,7.67,2,13.08,13.08,0,0,0,7.6-2.21A18.67,18.67,0,0,0,203.2,42a27.65,27.65,0,0,0,3.23-7.87,36.8,36.8,0,0,0,1.07-8.74A35.35,35.35,0,0,0,206.43,16.86Z"/><path class="cls-1" d="M242.67,23.34a2.72,2.72,0,0,1-2.08,1,3.58,3.58,0,0,1-1.77-.38,5.71,5.71,0,0,1-1.14-.87,8.56,8.56,0,0,0-1-.87,2.7,2.7,0,0,0-1.53-.38,2.75,2.75,0,0,0-1.63.59A7.5,7.5,0,0,0,232,23.93,12,12,0,0,0,230.74,26c-.37.76-.69,1.49-1,2.18v20a1.67,1.67,0,0,0,.9,1,5.28,5.28,0,0,0,1.56.49,14.82,14.82,0,0,0,1.81.17,11.86,11.86,0,0,1,1.63.17v.7H220.13v-.7a9.07,9.07,0,0,0,2.74-.62A1.64,1.64,0,0,0,224,47.73V24.28a2.48,2.48,0,0,0-.1-.83,1.58,1.58,0,0,0-.59-.63c-.42-.23-.9-.52-1.46-.86a11,11,0,0,0-1.66-.87v-.42l9.09-3.54h.41l-.14,9.65h.14q.35-.84,1.11-2.43a21.92,21.92,0,0,1,1.94-3.23,12.46,12.46,0,0,1,2.85-2.81,6.47,6.47,0,0,1,3.81-1.18,4.39,4.39,0,0,1,3,1,3.34,3.34,0,0,1,1.21,2.64A3.65,3.65,0,0,1,242.67,23.34Z"/><path class="cls-1" d="M273.75,50.85h-.42V43.91h-.07A14,14,0,0,1,268.51,49a13,13,0,0,1-6.83,1.67,12.68,12.68,0,0,1-5-1,11.74,11.74,0,0,1-4.27-3.12,15.76,15.76,0,0,1-3-5.2,21,21,0,0,1-1.11-7.11,17.61,17.61,0,0,1,1.28-6.73,16.3,16.3,0,0,1,9.19-9.09,19.1,19.1,0,0,1,7.22-1.32,21.25,21.25,0,0,1,3.92.35,29.49,29.49,0,0,1,3.36.83c0-.69-.08-1.64-.1-2.84s0-2.43,0-3.68V5.9l-5.68-2.15V3.33l11-3h.55v45a16.33,16.33,0,0,0,2.08,1c1,.41,2,.81,2.85,1.18v.48Zm-.49-26.09a13.39,13.39,0,0,0-3.88-4.57A7.54,7.54,0,0,0,265,18.45a8.25,8.25,0,0,0-4.61,1.25A10,10,0,0,0,257.24,23a15.72,15.72,0,0,0-1.84,4.79,26.14,26.14,0,0,0-.59,5.55,22,22,0,0,0,.69,5.51,15.24,15.24,0,0,0,2.09,4.72A11.09,11.09,0,0,0,261,46.89a8.86,8.86,0,0,0,4.75,1.25,6.86,6.86,0,0,0,4.89-1.94,8.77,8.77,0,0,0,2.6-4.93Z"/><path class="cls-1" d="M313.7,43.53a12.82,12.82,0,0,1-2.63,3.5,13.93,13.93,0,0,1-4,2.64,12.56,12.56,0,0,1-5.17,1,15.43,15.43,0,0,1-6.45-1.32,14.13,14.13,0,0,1-5-3.71,17.25,17.25,0,0,1-3.16-5.62,20.85,20.85,0,0,1-1.11-6.83,17.55,17.55,0,0,1,4-11,14.71,14.71,0,0,1,4.65-3.71,13,13,0,0,1,6.07-1.43,18.37,18.37,0,0,1,5.1.7,11.93,11.93,0,0,1,4.16,2.11,11,11,0,0,1,2.88,3.58,13,13,0,0,1,1.32,5.06H292.13a12.43,12.43,0,0,1-.07,1.28,14.72,14.72,0,0,0-.07,1.49,18.81,18.81,0,0,0,.83,5.59,15,15,0,0,0,2.43,4.72,11.39,11.39,0,0,0,4,3.22,12.62,12.62,0,0,0,5.61,1.18A10.5,10.5,0,0,0,311,44.29,8.35,8.35,0,0,0,314.4,40l.55.13A12.52,12.52,0,0,1,313.7,43.53Zm-7.94-23.38A6.3,6.3,0,0,0,301,18.31a5.72,5.72,0,0,0-3.5,1.15,12.71,12.71,0,0,0-2.71,2.67A13.68,13.68,0,0,0,293,25.22a12.82,12.82,0,0,0-.76,2.39h2.84c.84,0,1.66,0,2.47,0l2.53-.07q1.32,0,2.91,0c.69,0,1.34,0,1.94-.07a5.38,5.38,0,0,0,1.6-.35,5.39,5.39,0,0,0,.73-1,3.39,3.39,0,0,0,.24-1.45A6.15,6.15,0,0,0,305.76,20.15Z"/><path class="cls-1" d="M339.65,23.34a2.74,2.74,0,0,1-2.08,1A3.58,3.58,0,0,1,335.8,24a6.09,6.09,0,0,1-1.15-.87,7.86,7.86,0,0,0-1-.87,2.69,2.69,0,0,0-1.52-.38,2.72,2.72,0,0,0-1.63.59A7.25,7.25,0,0,0,329,23.93,11.42,11.42,0,0,0,327.72,26c-.37.76-.7,1.49-1,2.18v20a1.61,1.61,0,0,0,.9,1,5.28,5.28,0,0,0,1.56.49,14.85,14.85,0,0,0,1.8.17,11.53,11.53,0,0,1,1.63.17v.7H317.1v-.7a9,9,0,0,0,2.74-.62A1.64,1.64,0,0,0,321,47.73V24.28a2.43,2.43,0,0,0-.11-.83,1.51,1.51,0,0,0-.59-.63c-.41-.23-.9-.52-1.45-.86a11.12,11.12,0,0,0-1.67-.87v-.42l9.09-3.54h.42l-.14,9.65h.14q.35-.84,1.11-2.43a20.32,20.32,0,0,1,1.94-3.23,12.22,12.22,0,0,1,2.84-2.81,6.48,6.48,0,0,1,3.82-1.18,4.41,4.41,0,0,1,2.95,1,3.37,3.37,0,0,1,1.21,2.64A3.65,3.65,0,0,1,339.65,23.34Z"/><path class="cls-1" d="M383.52,18.73a5.52,5.52,0,0,0-1.52.35,3.37,3.37,0,0,0-1.29.86,4.38,4.38,0,0,0-.9,1.7l-1.11,3.54-1.8,5.72q-1,3.3-2.29,7.25c-.83,2.64-1.68,5.34-2.53,8.12l-2.57,8.25q-1.29,4.09-2.46,7.77a7.56,7.56,0,0,1-2.36,3.82,5.11,5.11,0,0,1-3.12,1.18,4.25,4.25,0,0,1-2.57-.88,2.7,2.7,0,0,1-1.18-2.28,3.31,3.31,0,0,1,.83-2.31,2.87,2.87,0,0,1,2.22-.91,3.32,3.32,0,0,1,2.33.84c.62.56,1.26,1.14,1.9,1.75h.14c.51-1.25,1-2.48,1.36-3.71s.73-2.33,1-3.32.54-1.84.73-2.53.3-1.16.34-1.39-.34-.84-.76-2l-1.6-4.37q-1-2.67-2.22-6c-.83-2.21-1.67-4.49-2.53-6.82s-1.7-4.64-2.53-6.9-1.6-4.34-2.29-6.24a4.84,4.84,0,0,0-1.49-1.11,9.94,9.94,0,0,0-3.23-.55v-.76h15.13v.76a15.63,15.63,0,0,0-2.54.56,1.54,1.54,0,0,0-1.07,1.66,8.35,8.35,0,0,0,.42,1.7c.27.9.64,2,1.1,3.36s1,2.81,1.57,4.41l1.73,4.82c.58,1.62,1.14,3.18,1.7,4.68s1,2.81,1.46,3.92c.13-.37.39-1.15.76-2.36l1.32-4.26c.51-1.64,1-3.37,1.59-5.17s1.07-3.5,1.53-5.1.84-3,1.14-4.09a12.32,12.32,0,0,0,.45-2.12,1.43,1.43,0,0,0-.34-1,2.23,2.23,0,0,0-.94-.59,5.58,5.58,0,0,0-1.28-.28l-1.32-.14v-.76h10.68v.76Z"/><path class="cls-1" d="M416.09,40.34a18.21,18.21,0,0,1-3.54,5.51,16,16,0,0,1-5.17,3.68,15,15,0,0,1-6.21,1.32,17.9,17.9,0,0,1-5.61-1,15.88,15.88,0,0,1-9.4-8.5,17.94,17.94,0,0,1-1.56-7.74,16.23,16.23,0,0,1,1.21-6.17,16.49,16.49,0,0,1,15.5-10.34,16.15,16.15,0,0,1,14.61,9.26,16.58,16.58,0,0,1,1.49,7.25A17.22,17.22,0,0,1,416.09,40.34Zm-5.65-11.83a18.71,18.71,0,0,0-1.7-5,11.11,11.11,0,0,0-3.12-3.78,7.63,7.63,0,0,0-4.79-1.5,6.55,6.55,0,0,0-4.09,1.39,11.92,11.92,0,0,0-3.09,3.64,18.81,18.81,0,0,0-1.94,5.07,24.91,24.91,0,0,0-.66,5.72,31.37,31.37,0,0,0,.55,6,16.11,16.11,0,0,0,1.81,5,9.9,9.9,0,0,0,3.19,3.47,8.18,8.18,0,0,0,4.64,1.29,6.65,6.65,0,0,0,4.55-1.63,12.44,12.44,0,0,0,3-4.1,22.16,22.16,0,0,0,1.67-5.3,30.18,30.18,0,0,0,.52-5.28A27.42,27.42,0,0,0,410.44,28.51Z"/><path class="cls-1" d="M444,50.71h-.48v-7l-.07-.07a24.9,24.9,0,0,1-1.87,2.5,16.17,16.17,0,0,1-2.5,2.39,11.33,11.33,0,0,1-3.09,1.7,10.35,10.35,0,0,1-3.64.63q-4.44,0-6.55-2.64c-1.42-1.76-2.12-4.32-2.12-7.7V22.82a6.92,6.92,0,0,0-.07-1c-.05-.35-.08-.67-.1-1a1.37,1.37,0,0,0-.18-.65,1.8,1.8,0,0,0-.8-.91,4.4,4.4,0,0,0-1.14-.41,9.13,9.13,0,0,0-1.32-.18c-.46,0-.9-.05-1.32-.1v-.76h10.69V38c0,3.06.46,5.31,1.39,6.77S433.47,47,436,47a7.76,7.76,0,0,0,2.54-.38,8.74,8.74,0,0,0,2-1,9.78,9.78,0,0,0,1.6-1.35,17.16,17.16,0,0,0,1.36-1.6V22.89a15,15,0,0,0-.14-1.77,3.42,3.42,0,0,0-.56-1.63,9.7,9.7,0,0,0-2.25-.55c-1-.14-1.93-.26-3-.35v-.76h11.66v27.4a2.48,2.48,0,0,0,.1.83,1.57,1.57,0,0,0,.59.62c.42.24,1,.54,1.84.91s1.49.67,2.05.9v.41Z"/><path class="cls-1" d="M479.56,23.34a2.74,2.74,0,0,1-2.08,1,3.58,3.58,0,0,1-1.77-.38,6.09,6.09,0,0,1-1.15-.87,7.86,7.86,0,0,0-1-.87,2.67,2.67,0,0,0-1.52-.38,2.72,2.72,0,0,0-1.63.59,7.5,7.5,0,0,0-1.49,1.49A11.42,11.42,0,0,0,467.63,26c-.37.76-.7,1.49-1,2.18v20a1.67,1.67,0,0,0,.9,1,5.28,5.28,0,0,0,1.56.49,14.85,14.85,0,0,0,1.8.17,11.53,11.53,0,0,1,1.63.17v.7H457v-.7a9,9,0,0,0,2.74-.62,1.64,1.64,0,0,0,1.15-1.59V24.28a2.43,2.43,0,0,0-.11-.83,1.47,1.47,0,0,0-.58-.63c-.42-.23-.91-.52-1.46-.86a11.12,11.12,0,0,0-1.67-.87v-.42l9.09-3.54h.42l-.14,9.65h.14q.35-.84,1.11-2.43a21.09,21.09,0,0,1,1.94-3.23,12.42,12.42,0,0,1,2.84-2.81,6.5,6.5,0,0,1,3.82-1.18,4.41,4.41,0,0,1,2.95,1,3.34,3.34,0,0,1,1.21,2.64A3.65,3.65,0,0,1,479.56,23.34Z"/><path class="cls-1" d="M106.78,89.35a2.54,2.54,0,0,1-2.11,1,3.39,3.39,0,0,1-2.12-.66A9.57,9.57,0,0,1,101,88.2c-.49-.58-.95-1.14-1.39-1.7a3.31,3.31,0,0,0-1.49-1.11,4.73,4.73,0,0,0-1.18.21,4.24,4.24,0,0,0-1.56.87A5.22,5.22,0,0,0,94,88.41a9.69,9.69,0,0,0-.73,3.43c-.09,1.85-.15,3.44-.17,4.75s0,2.81,0,4.48h8.19l-.91,3.05H92.94v27a1.53,1.53,0,0,0,.7,1,4.9,4.9,0,0,0,1.38.55,11,11,0,0,0,1.84.28c.67.05,1.35.11,2,.21v.69H81.29v-.69c.51-.05,1.1-.13,1.77-.25s1.32-.25,1.94-.41a5.64,5.64,0,0,0,1.56-.63,1.08,1.08,0,0,0,.63-.93V104.12h-5l.76-3.05h4.3c0-1.94.06-3.85.18-5.72A11.42,11.42,0,0,1,88.36,91a10.51,10.51,0,0,1,2.15-3,16,16,0,0,1,3.16-2.36,17,17,0,0,1,3.88-1.59,16.23,16.23,0,0,1,4.34-.59,10,10,0,0,1,2,.21,6.81,6.81,0,0,1,1.8.62,4.12,4.12,0,0,1,1.32,1.08,2.53,2.53,0,0,1,.52,1.63A3.71,3.71,0,0,1,106.78,89.35Z"/><path class="cls-1" d="M131.65,129.65a8.62,8.62,0,0,1-1.46,2.25,6.08,6.08,0,0,1-2.11,1.53,6.66,6.66,0,0,1-2.67.52,6.74,6.74,0,0,1-4.2-1.39q-1.84-1.38-1.84-4.85l-.14-.07a16.54,16.54,0,0,1-1.49,2,13.46,13.46,0,0,1-2.22,2.08,11.18,11.18,0,0,1-2.84,1.56,9.74,9.74,0,0,1-3.44.59,8.41,8.41,0,0,1-2.25-.31,5.39,5.39,0,0,1-2.08-1.11,5.84,5.84,0,0,1-1.53-2.05,7.15,7.15,0,0,1-.59-3,5.72,5.72,0,0,1,1.56-3.75,17.81,17.81,0,0,1,3.85-3.26q2.3-1.45,4.06-2.49t3.09-1.77c.88-.49,1.65-.9,2.32-1.25s1.24-.66,1.7-.94v-7.14a2.41,2.41,0,0,0-.24-.66,3.69,3.69,0,0,0-.84-1.08,5.56,5.56,0,0,0-1.62-1,6.93,6.93,0,0,0-2.71-.45,6.3,6.3,0,0,0-2.18.38,7.61,7.61,0,0,0-1.91,1,6.53,6.53,0,0,0-1.32,1.18,1.7,1.7,0,0,0-.49,1v3.13a2.17,2.17,0,0,1-1,1.73,3.53,3.53,0,0,1-2.19.76,2.59,2.59,0,0,1-1.91-.8,2.51,2.51,0,0,1-.79-1.83,3,3,0,0,1,.41-1.53,5.63,5.63,0,0,1,1-1.25,8.19,8.19,0,0,1,1.36-1c.48-.28.91-.53,1.28-.76,1.2-.7,2.43-1.37,3.68-2s2.44-1.21,3.57-1.67,2.17-.83,3.12-1.11a8.52,8.52,0,0,1,2.33-.41,6.61,6.61,0,0,1,3.39.93,5.62,5.62,0,0,1,2.29,2.33,4.13,4.13,0,0,1,.35,1.69c.05.82.07,1.61.07,2.4,0,1.66,0,3.17,0,4.51s0,2.63,0,3.88,0,2.53,0,3.85,0,2.77,0,4.34c0,2.08.36,3.45,1.08,4.12a3.44,3.44,0,0,0,2.46,1,3.56,3.56,0,0,0,2.36-.66,3.38,3.38,0,0,0,1-1.7h.41A7.07,7.07,0,0,1,131.65,129.65ZM119.37,115a27.8,27.8,0,0,1-3.12,1.91c-1.25.67-2.46,1.4-3.64,2.18a16.42,16.42,0,0,0-3.06,2.61,4.7,4.7,0,0,0-1.28,3.22,4.9,4.9,0,0,0,1.25,3.26,4.09,4.09,0,0,0,3.26,1.46,11,11,0,0,0,3.19-.42,6.09,6.09,0,0,0,2.57-1.59,2.55,2.55,0,0,0,.83-2Z"/><path class="cls-1" d="M163.59,102a9.87,9.87,0,0,0-2,.52,6.59,6.59,0,0,0-2,1.15,5.54,5.54,0,0,0-1.45,2c-.56,1.29-1.19,2.82-1.91,4.58s-1.47,3.6-2.25,5.55-1.57,3.88-2.33,5.82-1.47,3.73-2.12,5.34c-.37.84-.68,1.54-.93,2.12l-.73,1.63-.66,1.46-.73,1.59a.72.72,0,0,1-.69.42.5.5,0,0,1-.42-.18,1.24,1.24,0,0,1-.2-.31q-1.11-2.83-2.09-5.37t-2-5.21l-2.22-5.72q-1.17-3-2.63-6.87c-.14-.37-.34-.86-.59-1.49s-.52-1.28-.8-2-.55-1.37-.83-2-.54-1.18-.77-1.59a6.52,6.52,0,0,0-1.28-.94,7.67,7.67,0,0,0-3.16-.66v-.76h16.72v.76L144,102a13.58,13.58,0,0,0-1.77.31,4.6,4.6,0,0,0-1.42.59,1.27,1.27,0,0,0-.59,1.14,7.52,7.52,0,0,0,.45,1.67c.3.88.7,2,1.18,3.26s1,2.73,1.63,4.3,1.22,3.14,1.84,4.72,1.24,3.09,1.84,4.57,1.11,2.78,1.52,3.89q1.05-2.56,2.43-6.11c.93-2.35,1.81-4.67,2.64-6.93s1.53-4.26,2.11-6a14.94,14.94,0,0,0,.87-3.19,2,2,0,0,0-.52-1.49,2.81,2.81,0,0,0-1.28-.73,6,6,0,0,0-1.6-.21,12.64,12.64,0,0,1-1.46-.07v-.69h13.46v.76A13.28,13.28,0,0,0,163.59,102Z"/><path class="cls-1" d="M194.63,123.58a18,18,0,0,1-3.53,5.51,16,16,0,0,1-5.17,3.68,15.06,15.06,0,0,1-6.21,1.32,17.68,17.68,0,0,1-5.62-1,16,16,0,0,1-9.4-8.5,17.93,17.93,0,0,1-1.56-7.73,16.06,16.06,0,0,1,1.22-6.18,16.45,16.45,0,0,1,15.5-10.33,16.07,16.07,0,0,1,14.6,9.26,16.38,16.38,0,0,1,1.49,7.25A17.17,17.17,0,0,1,194.63,123.58ZM189,111.75a18.37,18.37,0,0,0-1.7-5,11.11,11.11,0,0,0-3.12-3.78,7.6,7.6,0,0,0-4.79-1.49,6.56,6.56,0,0,0-4.09,1.38,12.2,12.2,0,0,0-3.09,3.64,19.28,19.28,0,0,0-1.94,5.07,24.91,24.91,0,0,0-.66,5.72,31.53,31.53,0,0,0,.56,6,16.55,16.55,0,0,0,1.8,5,10,10,0,0,0,3.19,3.46,8.23,8.23,0,0,0,4.65,1.29,6.62,6.62,0,0,0,4.54-1.63,12.36,12.36,0,0,0,3-4.1,22.15,22.15,0,0,0,1.66-5.3,29.23,29.23,0,0,0,.52-5.27A26.69,26.69,0,0,0,189,111.75Z"/><path class="cls-1" d="M222.52,134H222v-7l-.07-.07a23.46,23.46,0,0,1-1.87,2.5,15.73,15.73,0,0,1-2.5,2.39,11.13,11.13,0,0,1-3.08,1.7,10.43,10.43,0,0,1-3.64.63q-4.44,0-6.56-2.64t-2.11-7.7V106.06a7.07,7.07,0,0,0-.08-1c0-.35-.08-.67-.1-1a1.43,1.43,0,0,0-.17-.66,1.78,1.78,0,0,0-.8-.9,4.31,4.31,0,0,0-1.14-.42,7.93,7.93,0,0,0-1.32-.17c-.47,0-.9-.06-1.32-.11v-.76H208v20.18c0,3.06.47,5.31,1.4,6.77s2.67,2.18,5.22,2.18a7.52,7.52,0,0,0,2.55-.38,8.07,8.07,0,0,0,1.95-1,9.38,9.38,0,0,0,1.6-1.35,15.76,15.76,0,0,0,1.36-1.6V106.13a13.12,13.12,0,0,0-.14-1.77,3.43,3.43,0,0,0-.55-1.63,9.83,9.83,0,0,0-2.25-.55c-1-.14-1.94-.25-3-.35v-.76h11.65v27.4a2.43,2.43,0,0,0,.11.83,1.45,1.45,0,0,0,.59.63q.62.34,1.83.9c.81.37,1.49.67,2.05.9v.42Z"/><path class="cls-1" d="M258.11,106.58a2.76,2.76,0,0,1-2.09,1,3.51,3.51,0,0,1-1.76-.38,5.18,5.18,0,0,1-1.15-.87,7.86,7.86,0,0,0-1-.87,2.7,2.7,0,0,0-1.53-.38,2.77,2.77,0,0,0-1.63.59,7.78,7.78,0,0,0-1.49,1.49,12.42,12.42,0,0,0-1.25,2c-.37.76-.69,1.49-1,2.19v20a1.67,1.67,0,0,0,.9,1,5.15,5.15,0,0,0,1.57.49,14.47,14.47,0,0,0,1.8.17,10.25,10.25,0,0,1,1.63.18v.69H235.56v-.69a9.06,9.06,0,0,0,2.74-.63,1.65,1.65,0,0,0,1.15-1.59V107.52a2.43,2.43,0,0,0-.11-.83,1.65,1.65,0,0,0-.59-.63c-.41-.23-.9-.52-1.46-.86a11,11,0,0,0-1.66-.87v-.42l9.09-3.53h.41L245,110h.14q.35-.84,1.11-2.43a21.18,21.18,0,0,1,1.95-3.23,12.22,12.22,0,0,1,2.84-2.81,6.46,6.46,0,0,1,3.81-1.17,4.34,4.34,0,0,1,3,1,3.31,3.31,0,0,1,1.22,2.63A3.65,3.65,0,0,1,258.11,106.58Z"/><path class="cls-1" d="M259.56,133.88v-.69c.56-.05,1.11-.11,1.67-.18a7,7,0,0,0,1.49-.34,3.55,3.55,0,0,0,1.11-.66,1.37,1.37,0,0,0,.45-1v-23.8a4,4,0,0,0-.11-1,1.34,1.34,0,0,0-.59-.76,10.58,10.58,0,0,0-1.49-.83c-.58-.28-1.19-.53-1.84-.77v-.41l9.37-3.05H270v31a1.5,1.5,0,0,0,.58,1,3,3,0,0,0,1.08.45,8,8,0,0,0,1.35.17,9.34,9.34,0,0,1,1.42.18v.69Zm10-41.79a3.66,3.66,0,0,1-2.68,1.07,3.79,3.79,0,0,1-3.74-3.74,3.53,3.53,0,0,1,1.07-2.64,4,4,0,0,1,5.35,0,3.53,3.53,0,0,1,1.07,2.64A3.66,3.66,0,0,1,269.52,92.09Z"/><path class="cls-1" d="M298.06,105.3H287.52v18.24q0,3.54,1.52,5.14a5.25,5.25,0,0,0,4,1.59,7.42,7.42,0,0,0,3.33-.66,6.3,6.3,0,0,0,2.29-2l.41.21a13.93,13.93,0,0,1-1.14,2.18A8.42,8.42,0,0,1,296,132a9.24,9.24,0,0,1-2.85,1.46,12.63,12.63,0,0,1-3.85.52,8.68,8.68,0,0,1-2.79-.45,7,7,0,0,1-2.37-1.32,7.67,7.67,0,0,1-1.68-1.94,4.24,4.24,0,0,1-.65-2.19q0-6.51.07-12.38c0-3.91.07-7.39.07-10.44h-5.07v-.76l10-9.51h.55v6h12.83Z"/><path class="cls-1" d="M327.19,126.77a12.82,12.82,0,0,1-2.63,3.5,13.73,13.73,0,0,1-4,2.64,12.56,12.56,0,0,1-5.17,1,15.43,15.43,0,0,1-6.45-1.32,14,14,0,0,1-5-3.71,17.15,17.15,0,0,1-3.16-5.62,20.85,20.85,0,0,1-1.11-6.83,17,17,0,0,1,1-5.79,17.29,17.29,0,0,1,2.95-5.17,14.85,14.85,0,0,1,4.65-3.71,13,13,0,0,1,6.07-1.42,18.38,18.38,0,0,1,5.1.69,11.93,11.93,0,0,1,4.16,2.11,11,11,0,0,1,2.88,3.58,13,13,0,0,1,1.32,5.06H305.62a12.43,12.43,0,0,1-.07,1.28,14.78,14.78,0,0,0-.07,1.5,18.8,18.8,0,0,0,.83,5.58,15,15,0,0,0,2.43,4.72,11.2,11.2,0,0,0,4,3.22,12.62,12.62,0,0,0,5.61,1.18,10.5,10.5,0,0,0,6.07-1.77,8.35,8.35,0,0,0,3.44-4.33l.55.14A12.58,12.58,0,0,1,327.19,126.77Zm-7.94-23.38a6.3,6.3,0,0,0-4.75-1.84,5.8,5.8,0,0,0-3.5,1.15,12.71,12.71,0,0,0-2.71,2.67,13.9,13.9,0,0,0-1.77,3.09,13,13,0,0,0-.76,2.39h2.84c.84,0,1.66,0,2.47,0l2.53-.07c.88,0,1.85,0,2.91,0,.7,0,1.34,0,1.94-.07a5.39,5.39,0,0,0,1.6-.34,5,5,0,0,0,.73-1,3.36,3.36,0,0,0,.24-1.45A6.15,6.15,0,0,0,319.25,103.39Z"/><path class="cls-1" d="M377.45,122.71a16.27,16.27,0,0,1-3.83,5.72,17.59,17.59,0,0,1-6.09,3.75,22.92,22.92,0,0,1-8.09,1.35c-.83,0-1.65,0-2.46-.07a16.5,16.5,0,0,1-2.52-.34c0,.65,0,1.59,0,2.84s.05,2.57.07,4,0,2.75,0,4.09v3.26a1.38,1.38,0,0,0,.77.94,6.36,6.36,0,0,0,1.49.48,13,13,0,0,0,1.8.24l1.63.14v.76H343.15v-.76c.46,0,1-.13,1.66-.24a16,16,0,0,0,1.84-.45,5.51,5.51,0,0,0,1.46-.7,1.18,1.18,0,0,0,.59-1V108.28a2.47,2.47,0,0,0-.11-.83,1.56,1.56,0,0,0-.59-.62c-.41-.23-1.08-.57-2-1s-1.66-.77-2.22-1v-.42l10.27-4h.42v7.77l.06.13c.65-.87,1.36-1.78,2.15-2.7a17.51,17.51,0,0,1,2.63-2.53,14.56,14.56,0,0,1,3.14-1.91,8.91,8.91,0,0,1,3.7-.76,11.58,11.58,0,0,1,5.64,1.31,12,12,0,0,1,4,3.47A15.26,15.26,0,0,1,378,110a20,20,0,0,1,.76,5.48A19,19,0,0,1,377.45,122.71Zm-5.51-10.13a11.75,11.75,0,0,0-1.9-4,9.23,9.23,0,0,0-3.25-2.71,10,10,0,0,0-4.59-1,7.56,7.56,0,0,0-3.22.66,10.44,10.44,0,0,0-2.42,1.53,7.11,7.11,0,0,0-1.52,1.77,3.24,3.24,0,0,0-.52,1.32q0,1.38,0,2.94c0,1.05,0,2,0,2.74v4.44c0,1.07,0,2.13.06,3.2a26.49,26.49,0,0,0,.49,3,8.75,8.75,0,0,0,1.17,2.85,6.37,6.37,0,0,0,2.28,2.08,7.74,7.74,0,0,0,3.74.8,7.44,7.44,0,0,0,3.86-1.11,11.4,11.4,0,0,0,3.32-3.06,15.63,15.63,0,0,0,2.32-4.64,19.52,19.52,0,0,0,.86-5.9A19,19,0,0,0,371.94,112.58Z"/><path class="cls-1" d="M381.44,133.88v-.69c.55-.05,1.11-.11,1.66-.18a6.9,6.9,0,0,0,1.5-.34,3.8,3.8,0,0,0,1.11-.66,1.37,1.37,0,0,0,.45-1v-23.8a4,4,0,0,0-.11-1,1.34,1.34,0,0,0-.59-.76,10.58,10.58,0,0,0-1.49-.83c-.58-.28-1.19-.53-1.84-.77v-.41l9.37-3.05h.41v31a1.55,1.55,0,0,0,.59,1,2.93,2.93,0,0,0,1.08.45,8,8,0,0,0,1.35.17,9.34,9.34,0,0,1,1.42.18v.69Zm9.95-41.79A3.78,3.78,0,0,1,385,89.42a3.49,3.49,0,0,1,1.07-2.64,3.95,3.95,0,0,1,5.34,0,3.5,3.5,0,0,1,1.08,2.64A3.63,3.63,0,0,1,391.39,92.09Z"/><path class="cls-1" d="M427.22,134.09h-.62c-.1-.14-.33-.21-.7-.21a12.57,12.57,0,0,1-1.28-.07c-.49,0-1-.07-1.56-.07h-7.7c-1.76,0-3.46,0-5.1,0s-3.32,0-5,0h-5.76l-.2-.48,19.35-30.87h-9.37a17.26,17.26,0,0,0-4.05.38,6,6,0,0,0-2.57,1.25,6.47,6.47,0,0,0-1.63,2.25c-.42.93-.86,2.06-1.32,3.4l-.69-.14,1.25-9.57.62-.07c.09.14.2.28.31.42a2.2,2.2,0,0,0,.59.41,3.9,3.9,0,0,0,1.18.31,15.26,15.26,0,0,0,2,.11h10.83c1.57,0,3.15,0,4.75,0s3.36,0,5.3,0l.07.62-19.56,30.8h10.48a11.75,11.75,0,0,0,4.57-.76,8.29,8.29,0,0,0,2.95-2,9.72,9.72,0,0,0,1.84-2.92c.46-1.11.88-2.24,1.25-3.39l.69.06Z"/><path class="cls-1" d="M457.26,134.09h-.63q-.13-.21-.69-.21a12.43,12.43,0,0,1-1.28-.07c-.49,0-1-.07-1.56-.07h-7.7c-1.76,0-3.46,0-5.1,0s-3.32,0-5,0h-5.76l-.21-.48,19.36-30.87h-9.37a17.36,17.36,0,0,0-4.06.38,6,6,0,0,0-2.56,1.25,6.35,6.35,0,0,0-1.63,2.25c-.42.93-.86,2.06-1.32,3.4l-.69-.14,1.24-9.57.63-.07a3.77,3.77,0,0,0,.31.42,2,2,0,0,0,.59.41,3.9,3.9,0,0,0,1.18.31,15.26,15.26,0,0,0,2,.11h10.82c1.57,0,3.16,0,4.75,0s3.37,0,5.31,0l.07.62-19.56,30.8h10.47a11.81,11.81,0,0,0,4.58-.76,8.38,8.38,0,0,0,2.95-2,10.13,10.13,0,0,0,1.84-2.92c.46-1.11.87-2.24,1.25-3.39l.69.06Z"/><path class="cls-1" d="M489.51,129.65a8.58,8.58,0,0,1-1.45,2.25,6,6,0,0,1-2.12,1.53,6.66,6.66,0,0,1-2.67.52,6.78,6.78,0,0,1-4.2-1.39q-1.83-1.38-1.83-4.85l-.14-.07a17.68,17.68,0,0,1-1.49,2,14.31,14.31,0,0,1-2.22,2.08,11.25,11.25,0,0,1-2.85,1.56,9.68,9.68,0,0,1-3.43.59,8.54,8.54,0,0,1-2.26-.31,5.46,5.46,0,0,1-2.08-1.11,5.94,5.94,0,0,1-1.52-2.05,7,7,0,0,1-.59-3,5.72,5.72,0,0,1,1.56-3.75,17.58,17.58,0,0,1,3.85-3.26c1.52-1,2.88-1.8,4.05-2.49s2.21-1.29,3.09-1.77,1.66-.9,2.33-1.25,1.23-.66,1.7-.94v-7.14a2.61,2.61,0,0,0-.25-.66,3.64,3.64,0,0,0-.83-1.08,5.63,5.63,0,0,0-1.63-1,6.88,6.88,0,0,0-2.7-.45,6.35,6.35,0,0,0-2.19.38,7.79,7.79,0,0,0-1.91,1,7.12,7.12,0,0,0-1.32,1.18,1.73,1.73,0,0,0-.48,1v3.13a2.18,2.18,0,0,1-1,1.73,3.53,3.53,0,0,1-2.18.76,2.58,2.58,0,0,1-1.91-.8,2.52,2.52,0,0,1-.8-1.83,2.89,2.89,0,0,1,.42-1.53,5.37,5.37,0,0,1,1-1.25,8.54,8.54,0,0,1,1.35-1c.49-.28.91-.53,1.28-.76,1.21-.7,2.43-1.37,3.68-2s2.44-1.21,3.57-1.67,2.18-.83,3.13-1.11a8.46,8.46,0,0,1,2.32-.41,6.67,6.67,0,0,1,3.4.93,5.74,5.74,0,0,1,2.29,2.33,4.16,4.16,0,0,1,.34,1.69c0,.82.07,1.61.07,2.4,0,1.66,0,3.17,0,4.51s0,2.63,0,3.88,0,2.53,0,3.85,0,2.77,0,4.34c0,2.08.35,3.45,1.07,4.12a3.47,3.47,0,0,0,2.46,1,3.54,3.54,0,0,0,2.36-.66,3.25,3.25,0,0,0,1-1.7h.42A7.29,7.29,0,0,1,489.51,129.65ZM477.24,115a29,29,0,0,1-3.13,1.91c-1.24.67-2.46,1.4-3.64,2.18a16.35,16.35,0,0,0-3.05,2.61,4.65,4.65,0,0,0-1.28,3.22,4.89,4.89,0,0,0,1.24,3.26,4.11,4.11,0,0,0,3.27,1.46,11.06,11.06,0,0,0,3.19-.42,6.06,6.06,0,0,0,2.56-1.59,2.52,2.52,0,0,0,.84-2Z"/><path class="cls-1" d="M536.34,123.58a18.21,18.21,0,0,1-3.54,5.51,15.87,15.87,0,0,1-5.17,3.68,15,15,0,0,1-6.21,1.32,17.72,17.72,0,0,1-5.62-1,16,16,0,0,1-9.4-8.5,17.93,17.93,0,0,1-1.56-7.73,16.25,16.25,0,0,1,1.22-6.18,16.45,16.45,0,0,1,15.5-10.33,16.07,16.07,0,0,1,14.6,9.26,16.38,16.38,0,0,1,1.49,7.25A17.34,17.34,0,0,1,536.34,123.58Zm-5.66-11.83a18,18,0,0,0-1.7-5,10.89,10.89,0,0,0-3.12-3.78,7.57,7.57,0,0,0-4.78-1.49,6.57,6.57,0,0,0-4.1,1.38,12,12,0,0,0-3.08,3.64,19,19,0,0,0-1.95,5.07,24.91,24.91,0,0,0-.66,5.72,31.53,31.53,0,0,0,.56,6,16.55,16.55,0,0,0,1.8,5,10.14,10.14,0,0,0,3.19,3.46,8.23,8.23,0,0,0,4.65,1.29,6.66,6.66,0,0,0,4.55-1.63,12.47,12.47,0,0,0,3-4.1,21.71,21.71,0,0,0,1.66-5.3,29.23,29.23,0,0,0,.52-5.27A26.69,26.69,0,0,0,530.68,111.75Z"/><path class="cls-1" d="M560.34,133.88v-.76a16.17,16.17,0,0,0,3-.45,1.36,1.36,0,0,0,1.11-1.42V113.76a12.14,12.14,0,0,0-1.53-6.48c-1-1.64-2.73-2.46-5.13-2.46a6.91,6.91,0,0,0-3.81,1,19.88,19.88,0,0,0-3.4,2.84v22.75a1.77,1.77,0,0,0,.48,1,2,2,0,0,0,.83.45A5.17,5.17,0,0,0,553,133a9.26,9.26,0,0,1,1.32.18v.69H540.91v-.69a9,9,0,0,0,2.74-.63A1.64,1.64,0,0,0,544.8,131V107.1a2.51,2.51,0,0,0-.11-.83,1.56,1.56,0,0,0-.59-.62l-1.45-.8a18.11,18.11,0,0,0-1.67-.8v-.41l9.09-3.26h.42v7.49l.14.07a23.47,23.47,0,0,1,1.9-2.53,16,16,0,0,1,2.59-2.47,14.73,14.73,0,0,1,3.18-1.84,9.24,9.24,0,0,1,3.59-.72,7.09,7.09,0,0,1,6.15,3,12.87,12.87,0,0,1,2.15,7.7v20.39a1,1,0,0,0,.45.83,3.07,3.07,0,0,0,1.07.53,12.12,12.12,0,0,0,1.36.27l1.35.18v.62Z"/></g></g></svg>