<svg xmlns="http://www.w3.org/2000/svg" viewBox="0 0 85 53"><defs><style>.cls-1{fill:#ff1d63;}.cls-2{fill:#fff;}</style></defs><g id="Layer_2" data-name="Layer 2"><g id="page_1"><g id="logo_icon"><rect class="cls-1" width="85" height="53"/><path class="cls-2" d="M42.24,16.44a7.42,7.42,0,0,1,5.42,2.16,7.24,7.24,0,0,1,2.18,5.32A7.54,7.54,0,0,1,37,29.25,7.13,7.13,0,0,1,34.82,24a7.63,7.63,0,0,1,1-3.81,7.38,7.38,0,0,1,6.43-3.74Zm.06,1.39a6.06,6.06,0,0,0-5.21,3,6.22,6.22,0,0,0-.8,3.12,6,6,0,0,0,6,6,6,6,0,0,0,3.07-.81,5.67,5.67,0,0,0,2.2-2.2,6.14,6.14,0,0,0,.8-3.1,6,6,0,0,0-.8-3.07,5.94,5.94,0,0,0-2.22-2.2A6,6,0,0,0,42.3,17.83Z"/><path class="cls-2" d="M42.35,31.86a7.73,7.73,0,0,1-5.66-2.3A7.59,7.59,0,0,1,34.37,24a8,8,0,0,1,1.06-4,7.6,7.6,0,0,1,2.87-2.92A7.75,7.75,0,0,1,42.24,16,7.86,7.86,0,0,1,48,18.29a7.67,7.67,0,0,1,2.31,5.63,7.89,7.89,0,0,1-7.93,7.94Zm-.11-15a6.87,6.87,0,0,0-6,3.51A7.23,7.23,0,0,0,35.26,24a6.65,6.65,0,0,0,2.05,4.94,6.82,6.82,0,0,0,5,2,7,7,0,0,0,7-7,6.71,6.71,0,0,0-2.06-5A7,7,0,0,0,42.24,16.89Zm.06,13.58A6.44,6.44,0,0,1,35.85,24a6.64,6.64,0,0,1,.85-3.34,6.52,6.52,0,0,1,11.26,0,6.55,6.55,0,0,1,.85,3.29A6.67,6.67,0,0,1,48,27.24a6.2,6.2,0,0,1-2.37,2.37A6.57,6.57,0,0,1,42.3,30.47Zm0-12.2a5.45,5.45,0,0,0-2.78.77,5.52,5.52,0,0,0-2.05,2.05,5.79,5.79,0,0,0-.74,2.9,5.55,5.55,0,0,0,5.57,5.6,5.65,5.65,0,0,0,2.85-.75,5.37,5.37,0,0,0,2-2,5.77,5.77,0,0,0,.73-2.89,5.57,5.57,0,0,0-.73-2.85,5.5,5.5,0,0,0-2.06-2A5.63,5.63,0,0,0,42.3,18.27Z"/><path class="cls-2" d="M31.87,39.38a12.15,12.15,0,0,1,10.4-6.08A12,12,0,0,1,48.35,35a11.7,11.7,0,0,1,4.45,4.38,12.43,12.43,0,0,1,.8,1.74h3A14.15,14.15,0,0,0,53,34.85a14.75,14.75,0,0,0-10.82-4.32A14.64,14.64,0,0,0,28,41.07h3.06A11.75,11.75,0,0,1,31.87,39.38Z"/></g></g></g></svg>