<svg xmlns="http://www.w3.org/2000/svg" viewBox="0 0 50 49.94"><defs><style>.cls-1{fill:none;}.cls-2{fill:#603813;}</style></defs><g id="Layer_2" data-name="Layer 2"><g id="LOGIN"><path class="cls-1" d="M23.5,16.87a8.22,8.22,0,0,0-3.62,1.63l-.24.2c-.27.27-.54.52-.79.8a8.2,8.2,0,0,0,2,12.51,7.87,7.87,0,0,0,5.89,1,8.18,8.18,0,0,0,4.62-13.23A7.88,7.88,0,0,0,23.5,16.87Z"/><path class="cls-1" d="M45.14,13.28A9.2,9.2,0,0,0,40.8,6.2a9.43,9.43,0,0,0-4.49-1.45H13.63c-.36,0-.73.08-1.09.15a9.38,9.38,0,0,0-7.73,9.22q0,10.69,0,21.38a11.64,11.64,0,0,0,0,1.18,9.32,9.32,0,0,0,9.44,8.45q10.59,0,21.18,0c.41,0,.82,0,1.22-.05a9.1,9.1,0,0,0,5.91-2.89,9.28,9.28,0,0,0,2.57-6.6q0-10.65,0-21.31C45.18,14,45.17,13.61,45.14,13.28ZM34.22,34.13A12.66,12.66,0,0,1,25,38a13,13,0,0,1-1.65-26A12.74,12.74,0,0,1,34,15.55a12.4,12.4,0,0,1,4,8.52A12.65,12.65,0,0,1,34.22,34.13Zm7-22.41a2.9,2.9,0,0,1-2.76,3,3,3,0,1,1-.18-6A2.93,2.93,0,0,1,41.25,11.72Z"/><path class="cls-2" d="M50,13.89c0-.24,0-.48,0-.72l0-.29c0-.25,0-.5-.06-.74a14.11,14.11,0,0,0-4.49-8.48A13.78,13.78,0,0,0,40.62.77,12.26,12.26,0,0,0,36.79,0H13.16c-.34,0-.68,0-1,.08A14.15,14.15,0,0,0,3.51,4.79,13.59,13.59,0,0,0,1.13,8.56,13,13,0,0,0,.06,13.11c0,.34-.06.68-.06,1V35.77c0,.32,0,.64.06,1a13.69,13.69,0,0,0,.15,1.45,14,14,0,0,0,8.6,10.7,12.13,12.13,0,0,0,4.19,1c.33,0,.67.06,1,.06H36c.34,0,.68,0,1-.06l.56-.05a14,14,0,0,0,9-4.76,13.4,13.4,0,0,0,2.4-3.88,12.86,12.86,0,0,0,1-4.18l0-.3c0-.24,0-.49,0-.74Zm-7.38,28.3a9.1,9.1,0,0,1-5.91,2.89c-.4,0-.81.05-1.22.05q-10.59,0-21.18,0a9.32,9.32,0,0,1-9.44-8.45,11.64,11.64,0,0,1,0-1.18q0-10.69,0-21.38A9.38,9.38,0,0,1,12.54,4.9c.36-.07.73-.1,1.09-.15H36.31A9.43,9.43,0,0,1,40.8,6.2a9.2,9.2,0,0,1,4.34,7.08c0,.33,0,.67,0,1q0,10.65,0,21.31A9.28,9.28,0,0,1,42.62,42.19Z"/><path class="cls-2" d="M34,15.55A12.74,12.74,0,0,0,23.38,12,13,13,0,0,0,25,38a13,13,0,0,0,13-13.9A12.4,12.4,0,0,0,34,15.55ZM26.71,33a7.87,7.87,0,0,1-5.89-1,8.2,8.2,0,0,1-2-12.51c.25-.28.52-.53.79-.8l.24-.2a8.22,8.22,0,0,1,3.62-1.63,7.88,7.88,0,0,1,7.83,2.87A8.18,8.18,0,0,1,26.71,33Z"/><path class="cls-2" d="M38.31,8.75a3,3,0,1,0,.18,6,2.9,2.9,0,0,0,2.76-3A2.93,2.93,0,0,0,38.31,8.75Z"/></g></g></svg>