<svg xmlns="http://www.w3.org/2000/svg" viewBox="0 0 450.68 150.53"><defs><style>.cls-1{fill:#603813;}</style></defs><g id="Layer_2" data-name="Layer 2"><g id="Layer_1-2" data-name="Layer 1"><path class="cls-1" d="M173.21,14.92l-6.39,1.37q-10.35,19.17-18.72,49a151.89,151.89,0,0,1-8.83,23.06,124.6,124.6,0,0,1-14.15,23.36q-30.3,38.82-77.48,38.81-21.91,0-34.85-9.43a30.86,30.86,0,0,1-11.72-17A37,37,0,0,1,0,114.31q0-5.94,3.12-14.08A37.32,37.32,0,0,1,13.24,85.77q7-6.31,11.11-6.62c1,0,1.62.15,1.83.46s-.26,1-1.68,1.67q-4.71,2-10.5,9a36.31,36.31,0,0,0-9,24,25.29,25.29,0,0,0,6.55,17.5q8.22,9.13,23.29,12.48a49.87,49.87,0,0,0,10.19,1.53q3.51,0,7.23-.08a46.83,46.83,0,0,0,9.82-1.6,85.82,85.82,0,0,0,24.2-10.35,106.8,106.8,0,0,0,19.79-15.45A138.39,138.39,0,0,0,121.31,100a152.3,152.3,0,0,0,18-33.79A333.34,333.34,0,0,1,162.1,17.05q-24.19,5-38.51,11.11Q109,34.55,100.91,42.47A47.26,47.26,0,0,0,88,65.45a27.75,27.75,0,0,0-.92,6.7,15.07,15.07,0,0,0,3.5,10.35c2.34,2.64,4.85,4,7.54,4a23.67,23.67,0,0,0,8.67-1.82,20,20,0,0,0,8.15-6.09,23.32,23.32,0,0,0,4.87-14.76q0-4.26-1.22-5.33c-.2-.31-.1-.76.31-1.37q1.52-2.28,2.89,0a17.82,17.82,0,0,1,2,8.29,20.81,20.81,0,0,1-2.9,9.82,27.46,27.46,0,0,1-14.91,13.4,29.67,29.67,0,0,1-10.43,1.82q-5.55,0-12-5t-6.39-14a31.52,31.52,0,0,1,.61-5.94q8.67-39.12,86.76-52.36a35.83,35.83,0,0,1,4.94-7.15q3.59-4.26,6.09-5.1A13.77,13.77,0,0,1,179.76,0q5,0,5.17,4.26a7.88,7.88,0,0,1-3.65,7A34.77,34.77,0,0,1,173.21,14.92Zm-3.8-2.44q10.35-2.13,9.89-5.78a1.91,1.91,0,0,0-2.05-1.83Q175.5,4.87,169.41,12.48Z"/><path class="cls-1" d="M146.42,114.61q0-12.63,12.18-42.31h-7.92a1,1,0,0,1-1-.84,2.38,2.38,0,0,1,.16-1.67A1.21,1.21,0,0,1,151,69h9.13q5.48-12,10.2-20.09T179,38c2.63-1.88,4.54-2.82,5.7-2.82a7.44,7.44,0,0,1,2.51.3c2.34,1.12,3.5,3.43,3.5,6.93s-1.16,7.74-3.5,12.71S182.6,64.69,180.36,69h7.31a1,1,0,0,1,1,.84,2.42,2.42,0,0,1-.15,1.67,1.23,1.23,0,0,1-1.14.84h-8.83a110.19,110.19,0,0,1-20.25,25.11l-3.5,15.53a17.45,17.45,0,0,0-.45,3.88,8.14,8.14,0,0,0,1.06,3.88,3.55,3.55,0,0,0,3.35,2,11.92,11.92,0,0,0,5.79-1.83q7.31-5.47,16.13-23a2.84,2.84,0,0,1,1.45-1.67c.55-.21.88-.08,1,.38a4.32,4.32,0,0,1-.45,2.2,140.35,140.35,0,0,1-7.92,14.92q-8.22,13.24-17.5,13.24a9.8,9.8,0,0,1-7.76-3.5A13,13,0,0,1,146.42,114.61ZM175,72.3h-7.16q-1.81,4.26-8.22,20.24A116.37,116.37,0,0,0,175,72.3ZM177,69q10-18,10-25c0-2-.35-3.05-1.06-3.05-1.12,0-2.82,1.63-5.1,4.87s-6.12,11-11.49,23.14Z"/><path class="cls-1" d="M219.18,98q-5,9.66-6,14.46a39.38,39.38,0,0,0-1,7.76q0,3,2.28,3,2.89,0,7.15-5.33a108.49,108.49,0,0,0,12.33-20.24c.41-.92.86-1.42,1.37-1.53.81-.3,1.22,0,1.22.92a4.62,4.62,0,0,1-.46,1.82q-14,28.32-23.59,28.31c-2.94,0-5.33-1.42-7.15-4.26a11.69,11.69,0,0,1-1.37-6.09,35.5,35.5,0,0,1,1.52-9.28q-12.18,19.64-21,19.63a7,7,0,0,1-4.41-1.52q-4.56-3.19-4.57-11,0-14.91,12.94-30.29a33.65,33.65,0,0,1,18-11.11,21.87,21.87,0,0,1,5.48-.76,16.16,16.16,0,0,1,11.87,4.87c1,1.12,1.32,2.18.92,3.2a2.11,2.11,0,0,1-2.59,1.22q-1.68-5.49-7.31-5.48-6.54,0-16.13,10.35a83.62,83.62,0,0,0-10.2,14.3q-5.94,9.9-5.93,15.83c0,4,1.26,5.94,3.8,5.94q9.13,0,23.9-28A34.73,34.73,0,0,1,215.07,87a6.67,6.67,0,0,1,5-2.06,24.46,24.46,0,0,1,3.12.46,9.57,9.57,0,0,0,3.73.15Q224.2,88.29,219.18,98Z"/><path class="cls-1" d="M240.94,101.6c-.81,2.38-1.5,4.67-2.05,6.85a26.19,26.19,0,0,0-.84,6.54,12.62,12.62,0,0,0,1.52,6.09,5.14,5.14,0,0,0,4.87,2.82q5.49,0,10.66-7.38a157.55,157.55,0,0,0,11-18.8q1.21-2.13,2.28-1.68a1.2,1.2,0,0,1,.3,1.6c-.3.66-.94,2.08-1.9,4.26s-1.67,3.71-2.13,4.57-1.27,2.39-2.44,4.57a32.35,32.35,0,0,1-3,4.87q-1.29,1.59-3.5,4.11a19.54,19.54,0,0,1-4.19,3.73,19,19,0,0,1-10,3.34c-3.15,0-5.58-.68-7.31-2a8.1,8.1,0,0,1-3.12-4.42,19.48,19.48,0,0,1-.53-4.18c0-1.22.05-2.79.15-4.72a45.8,45.8,0,0,1,1.9-9.44q1.45-4.56,1.6-5.17a213.94,213.94,0,0,1,10-27.55,209.35,209.35,0,0,1,11-22.45,64.74,64.74,0,0,1,7.08-10.28q5.17-5.47,10.2-5.47,3.49,0,4.72,5a14.45,14.45,0,0,1,.15,2.28q0,5.18-3.66,13.09-13.08,29.07-31.2,45.66C242.21,97.82,241.75,99.22,240.94,101.6Zm18-29a147.33,147.33,0,0,0,11.19-20.47q3.57-8.44,3.58-11.49c0-2-.36-3-1.07-3q-1.52,0-5.78,6T255.33,65.22q-7.25,15.6-11.8,27.32A120,120,0,0,0,258.9,72.6Z"/><path class="cls-1" d="M272.14,123.44q2.89,0,6.09-2.89,5.63-5.62,14.31-23c.71-1.53,1.42-2,2.13-1.37a1.36,1.36,0,0,1,.3,1,12.17,12.17,0,0,1-1.21,3.34c-.82,1.78-1.55,3.38-2.21,4.8s-1.93,3.73-3.81,6.92a48.62,48.62,0,0,1-5.09,7.39q-6.25,7.15-11.8,7.15t-8-3.35a12.34,12.34,0,0,1-2.44-7.46,24,24,0,0,1,2-9l9.74-24.81a8,8,0,0,0,.31-2.43,7.34,7.34,0,0,0-1.83-4l8.37-.15q3.51,0,4.11,1.29c.41.86.1,2.21-.91,4L270,109.44a23.94,23.94,0,0,0-2.59,9.59C267.42,122,269,123.44,272.14,123.44Zm14.92-55.86a7.07,7.07,0,0,1-4.72,1.83,5.05,5.05,0,0,1-4.11-1.83A5.61,5.61,0,0,1,277,63.17a7.42,7.42,0,0,1,2.59-4.42,7.11,7.11,0,0,1,4.72-1.82,5.34,5.34,0,0,1,4.19,1.82,5.08,5.08,0,0,1,1.14,4.42A7.43,7.43,0,0,1,287.06,67.58Z"/><path class="cls-1" d="M331.2,98q-5,9.66-6,14.46a40.15,40.15,0,0,0-1,7.76q0,3,2.28,3,2.89,0,7.15-5.33A108.49,108.49,0,0,0,346,97.57c.41-.92.86-1.42,1.37-1.53.81-.3,1.22,0,1.22.92a4.62,4.62,0,0,1-.46,1.82q-14,28.32-23.59,28.31c-2.94,0-5.33-1.42-7.15-4.26a11.79,11.79,0,0,1-1.37-6.09,35.92,35.92,0,0,1,1.52-9.28q-12.18,19.64-21,19.63a7,7,0,0,1-4.42-1.52q-4.56-3.19-4.56-11,0-14.91,12.93-30.29a33.65,33.65,0,0,1,18-11.11,21.93,21.93,0,0,1,5.48-.76,16.2,16.2,0,0,1,11.88,4.87,3,3,0,0,1,.91,3.2,2.11,2.11,0,0,1-2.59,1.22q-1.68-5.49-7.3-5.48-6.56,0-16.14,10.35a83.62,83.62,0,0,0-10.2,14.3q-5.93,9.9-5.93,15.83t3.8,5.94q9.14,0,23.9-28A35.11,35.11,0,0,1,327.09,87a6.67,6.67,0,0,1,5-2.06,24.46,24.46,0,0,1,3.12.46,9.57,9.57,0,0,0,3.73.15Q336.23,88.29,331.2,98Z"/><path class="cls-1" d="M391.93,76.87q-18.72,32.86-18.72,42.92,0,4,2.89,4,7.75,0,20.85-26.34c.61-1.42,1.22-2,1.83-1.67a1.36,1.36,0,0,1,.91,1.22,3.75,3.75,0,0,1-.61,1.82q-8.07,16.29-13.62,22.45t-11.11,6.17a9.57,9.57,0,0,1-8.45-4.26,8.69,8.69,0,0,1-1.52-5.41,28.79,28.79,0,0,1,1.52-8.29q1.53-4.87,8.37-15.83A9.23,9.23,0,0,0,376,89.27c0-1.06-.87-1.6-2.59-1.6s-5,2.29-9.89,6.85q-11,10-21.16,30.14a4,4,0,0,1-2.06,1.9,20,20,0,0,1-4.49.53,11.22,11.22,0,0,0-4.41.77q2.43-4.87,9.59-19.94,12.78-26.64,16.74-30.45a6.82,6.82,0,0,1,5-1.82,26.21,26.21,0,0,1,3.12.45,9.57,9.57,0,0,0,3.72.16q-5.62,3-18.41,28.61a123.7,123.7,0,0,1,13-14.08,74.54,74.54,0,0,1,14.08-9.74q8.22-4.48,12-4.49A4.37,4.37,0,0,1,391.93,76.87Z"/><path class="cls-1" d="M424.65,73.52q11.12,0,11.11,14a33,33,0,0,1-3.34,13.7,54.32,54.32,0,0,1-12.79,18c1.32,2.54,3.7,3.8,7.15,3.8q4.11,0,7.77-4.1a42.14,42.14,0,0,0,6.54-8.3c1.32-2.38,2.29-4.13,2.89-5.25s1.4-2.71,2.36-4.8,1.55-3.34,1.75-3.8a1.08,1.08,0,0,1,1.07-.69c1-.1,1.52.26,1.52,1.07a2.45,2.45,0,0,1-.3,1.06l-.92,2.14c-.61,1.42-1.06,2.43-1.37,3l-1.59,3.27c-.77,1.58-1.43,2.82-2,3.73s-1.32,2.13-2.29,3.65a35.22,35.22,0,0,1-2.58,3.66c-.77.91-1.7,1.93-2.82,3a16.91,16.91,0,0,1-3.2,2.59,14,14,0,0,1-7.15,2.28q-6.24,0-9.74-4-7,5.19-12.94,5.18-11.12,0-11.11-14A32.88,32.88,0,0,1,396,99.09,51.13,51.13,0,0,1,408.9,81Q417.2,73.52,424.65,73.52Zm1.68,4.72q-4.11,0-9.74,5.47a50.33,50.33,0,0,0-10,14.92q-5.32,11-5.33,18t5.33,7q3.81,0,8.52-4.11a12.81,12.81,0,0,1-2.43-7.45q.3-6.56,5.33-6.55a4.32,4.32,0,0,1,3.27,1.37,3.87,3.87,0,0,1,1.29,2.51,9.85,9.85,0,0,1-.3,2.36,85.72,85.72,0,0,0,5.93-10.81A34.34,34.34,0,0,0,432,85.69Q432,78.24,426.33,78.24Z"/></g></g></svg>